<svg xmlns="http://www.w3.org/2000/svg" xmlns:xlink="http://www.w3.org/1999/xlink" preserveAspectRatio="xMidYMid" width="160" height="164.969" viewBox="0 0 160 164.969">
  <defs>
    <style>
      .cls-1 {
        fill: #bd1717;
        fill-rule: evenodd;
      }
    </style>
  </defs>
  <path d="M159.859,130.280 C159.765,130.946 159.662,131.541 159.553,132.065 C159.419,132.677 159.268,133.252 159.104,133.793 L155.532,133.159 C155.759,132.618 155.973,132.003 156.175,131.313 C156.374,130.625 156.553,129.920 156.711,129.199 C155.759,129.113 154.810,129.059 153.862,129.035 C152.915,129.012 151.974,129.000 151.039,129.000 C150.308,129.000 149.576,129.004 148.846,129.012 C148.114,129.019 147.379,129.047 146.640,129.093 C146.798,129.759 146.983,130.425 147.195,131.091 C147.407,131.757 147.650,132.438 147.925,133.135 L144.200,133.816 C144.026,133.456 143.869,133.036 143.728,132.559 C143.610,132.153 143.502,131.657 143.404,131.073 C143.305,130.490 143.256,129.830 143.256,129.093 C143.256,128.130 143.298,127.137 143.380,126.116 C143.462,125.094 143.616,124.097 143.840,123.126 C144.064,122.155 144.378,121.235 144.783,120.365 C145.188,119.495 145.715,118.735 146.363,118.081 C147.012,117.427 147.798,116.909 148.721,116.530 C149.645,116.150 150.740,115.960 152.005,115.960 C153.075,115.960 154.013,116.146 154.823,116.518 C155.632,116.890 156.332,117.391 156.923,118.022 C157.512,118.652 158.006,119.381 158.402,120.207 C158.800,121.033 159.115,121.898 159.352,122.803 C159.588,123.708 159.754,124.624 159.853,125.552 C159.951,126.480 159.999,127.360 159.999,128.189 C159.999,128.917 159.953,129.614 159.859,130.280 ZM157.024,123.713 C156.941,123.086 156.809,122.466 156.628,121.852 C156.446,121.237 156.214,120.647 155.925,120.083 C155.639,119.519 155.287,119.025 154.871,118.597 C154.455,118.170 153.972,117.830 153.427,117.575 C152.880,117.321 152.261,117.194 151.569,117.194 C150.933,117.194 150.358,117.295 149.848,117.499 C149.337,117.703 148.879,117.981 148.474,118.333 C148.069,118.686 147.719,119.094 147.425,119.561 C147.130,120.026 146.888,120.524 146.699,121.053 C146.511,121.581 146.369,122.124 146.275,122.680 C146.181,123.236 146.133,123.779 146.133,124.312 C146.133,124.963 146.157,125.591 146.204,126.198 C146.251,126.805 146.326,127.402 146.428,127.989 C147.214,128.036 147.998,128.064 148.780,128.071 C149.563,128.080 150.355,128.083 151.156,128.083 C152.108,128.083 153.065,128.078 154.029,128.066 C154.991,128.054 155.960,128.012 156.934,127.943 C157.076,127.073 157.146,126.254 157.146,125.487 C157.146,124.931 157.105,124.340 157.024,123.713 ZM140.379,132.065 C140.245,132.677 140.096,133.252 139.931,133.793 L136.358,133.159 C136.586,132.618 136.800,132.003 137.001,131.313 C137.201,130.625 137.380,129.920 137.537,129.199 C136.586,129.113 135.637,129.059 134.690,129.035 C133.742,129.012 132.801,129.000 131.866,129.000 C131.134,129.000 130.403,129.004 129.672,129.012 C128.941,129.019 128.206,129.047 127.467,129.093 C127.625,129.759 127.809,130.425 128.022,131.091 C128.234,131.757 128.477,132.438 128.752,133.135 L125.026,133.816 C124.853,133.456 124.696,133.036 124.554,132.559 C124.437,132.153 124.329,131.657 124.231,131.073 C124.132,130.490 124.083,129.830 124.083,129.093 C124.083,128.130 124.125,127.137 124.207,126.116 C124.289,125.094 124.443,124.097 124.667,123.126 C124.891,122.155 125.205,121.235 125.610,120.365 C126.015,119.495 126.542,118.735 127.190,118.081 C127.838,117.427 128.624,116.909 129.548,116.530 C130.472,116.150 131.566,115.960 132.832,115.960 C133.901,115.960 134.841,116.146 135.651,116.518 C136.460,116.890 137.160,117.391 137.749,118.022 C138.339,118.652 138.832,119.381 139.229,120.207 C139.626,121.033 139.943,121.898 140.178,122.803 C140.414,123.708 140.582,124.624 140.680,125.552 C140.778,126.480 140.827,127.360 140.827,128.189 C140.827,128.917 140.780,129.614 140.685,130.280 C140.591,130.946 140.489,131.541 140.379,132.065 ZM137.850,123.713 C137.767,123.086 137.636,122.466 137.455,121.852 C137.274,121.237 137.040,120.647 136.753,120.083 C136.466,119.519 136.114,119.025 135.698,118.597 C135.281,118.170 134.800,117.830 134.253,117.575 C133.707,117.321 133.088,117.194 132.396,117.194 C131.760,117.194 131.185,117.295 130.674,117.499 C130.164,117.703 129.706,117.981 129.301,118.333 C128.896,118.686 128.546,119.094 128.251,119.561 C127.957,120.026 127.715,120.524 127.526,121.053 C127.337,121.581 127.196,122.124 127.102,122.680 C127.008,123.236 126.960,123.779 126.960,124.312 C126.960,124.963 126.984,125.591 127.031,126.198 C127.078,126.805 127.153,127.402 127.255,127.989 C128.041,128.036 128.825,128.064 129.607,128.071 C130.389,128.080 131.181,128.083 131.983,128.083 C132.934,128.083 133.892,128.078 134.855,128.066 C135.817,128.054 136.787,128.012 137.761,127.943 C137.903,127.073 137.974,126.254 137.974,125.487 C137.974,124.931 137.932,124.340 137.850,123.713 ZM121.242,86.140 C121.263,86.189 121.273,86.228 121.263,86.312 C121.309,86.409 121.319,86.509 121.302,86.615 C121.319,86.741 121.309,86.843 121.263,86.952 C121.263,87.028 121.256,87.066 121.242,87.110 C121.213,87.217 121.167,87.306 121.178,87.282 C121.121,87.402 121.114,87.402 121.011,87.578 C121.043,87.525 120.965,87.641 120.844,87.729 C120.791,87.816 120.702,87.884 120.614,87.911 C120.514,88.005 120.438,88.053 120.346,88.069 C120.285,88.110 120.253,88.122 120.229,88.130 C120.165,88.157 120.105,88.162 120.051,88.157 C119.938,88.198 119.845,88.207 119.746,88.188 C119.608,88.207 119.510,88.198 119.422,88.157 C119.340,88.157 119.298,88.146 119.251,88.130 C116.408,87.217 112.364,86.205 107.949,84.773 C102.058,89.134 95.075,92.180 87.340,93.399 C74.391,95.452 61.844,91.997 52.069,84.765 C47.645,86.205 43.599,87.217 40.752,88.130 C40.688,88.157 40.635,88.162 40.585,88.157 C40.479,88.198 40.365,88.217 40.254,88.188 C40.122,88.207 40.030,88.198 39.948,88.157 C39.863,88.162 39.817,88.157 39.771,88.130 C39.736,88.115 39.683,88.102 39.654,88.069 C39.537,88.034 39.459,87.984 39.386,87.911 C39.262,87.859 39.202,87.805 39.152,87.729 C39.060,87.659 39.003,87.585 38.975,87.503 C38.929,87.477 38.918,87.458 38.850,87.345 C38.850,87.345 38.801,87.233 38.765,87.110 C38.741,87.058 38.723,86.996 38.741,86.952 C38.698,86.889 38.687,86.771 38.702,86.615 C38.687,86.487 38.698,86.402 38.741,86.312 C38.716,86.252 38.741,86.203 38.765,86.140 C39.683,83.287 40.688,79.250 42.144,74.825 C37.824,68.970 34.805,62.013 33.590,54.321 C31.550,41.422 34.973,28.910 42.151,19.138 C40.688,14.719 39.683,10.680 38.765,7.821 C38.741,7.759 38.716,7.706 38.741,7.646 C38.698,7.564 38.687,7.477 38.702,7.345 C38.687,7.193 38.698,7.083 38.741,7.027 C38.723,6.967 38.741,6.903 38.765,6.854 C38.801,6.733 38.850,6.625 38.850,6.619 C38.918,6.509 38.929,6.493 38.975,6.462 C39.003,6.378 39.060,6.304 39.152,6.235 C39.202,6.154 39.262,6.101 39.386,6.045 C39.459,5.974 39.537,5.935 39.654,5.892 C39.683,5.862 39.736,5.848 39.771,5.827 C39.817,5.815 39.863,5.799 39.948,5.810 C40.030,5.764 40.122,5.761 40.254,5.774 C40.365,5.761 40.479,5.764 40.585,5.815 C40.635,5.799 40.688,5.815 40.752,5.827 C43.595,6.749 47.645,7.756 52.047,9.193 C57.945,4.831 64.930,1.781 72.657,0.562 C85.605,-1.482 98.160,1.972 107.931,9.193 C112.357,7.756 116.401,6.749 119.251,5.827 C119.298,5.815 119.340,5.799 119.422,5.815 C119.510,5.764 119.608,5.761 119.746,5.774 C119.846,5.761 119.938,5.764 120.051,5.810 C120.105,5.799 120.165,5.815 120.229,5.827 C120.254,5.848 120.285,5.848 120.346,5.892 C120.438,5.914 120.514,5.954 120.614,6.045 C120.702,6.085 120.791,6.149 120.844,6.235 C120.965,6.323 121.043,6.430 121.011,6.389 C121.114,6.561 121.121,6.561 121.178,6.682 C121.167,6.662 121.213,6.749 121.242,6.854 C121.256,6.895 121.263,6.938 121.263,7.027 C121.309,7.127 121.320,7.226 121.302,7.345 C121.320,7.449 121.309,7.554 121.263,7.646 C121.281,7.706 121.263,7.759 121.242,7.821 C120.324,10.680 119.308,14.714 117.862,19.134 C122.183,24.999 125.199,31.956 126.407,39.639 C128.450,52.536 125.023,65.058 117.848,74.820 C119.308,79.236 120.317,83.287 121.242,86.140 ZM78.414,90.910 L78.414,65.253 C75.624,71.024 71.241,75.232 66.305,78.368 C62.895,80.535 59.199,82.196 55.616,83.529 C62.260,87.965 70.122,90.614 78.414,90.910 ZM52.542,81.275 C56.558,79.900 60.756,78.152 64.609,75.702 C71.191,71.515 76.658,65.358 78.067,55.543 C74.845,54.802 72.197,52.283 71.431,48.910 C61.606,50.303 55.424,55.759 51.233,62.324 C48.782,66.169 47.019,70.356 45.632,74.371 C47.677,76.925 50.000,79.236 52.542,81.275 ZM49.108,82.382 C47.473,80.967 45.938,79.430 44.523,77.795 C43.812,80.112 43.205,82.292 42.632,84.260 C44.605,83.694 46.799,83.089 49.108,82.382 ZM36.593,53.840 C37.621,60.293 39.991,66.182 43.397,71.282 C44.729,67.708 46.403,64.028 48.572,60.624 C51.710,55.710 55.916,51.345 61.670,48.563 L36.082,48.563 C36.156,50.309 36.319,52.074 36.593,53.840 ZM36.082,45.396 L61.666,45.396 C55.905,42.619 51.710,38.250 48.573,33.336 C46.403,29.954 44.729,26.269 43.397,22.700 C39.003,29.316 36.376,37.142 36.082,45.396 ZM42.632,9.701 C43.205,11.669 43.812,13.868 44.523,16.169 C45.938,14.539 47.469,12.996 49.090,11.577 C46.792,10.876 44.601,10.267 42.632,9.701 ZM45.642,19.609 C47.019,23.619 48.782,27.806 51.233,31.640 C55.424,38.202 61.606,43.665 71.431,45.054 C72.169,41.831 74.703,39.185 78.074,38.423 C76.658,28.609 71.191,22.459 64.609,18.261 C60.756,15.818 56.554,14.063 52.525,12.686 C49.983,14.735 47.670,17.057 45.642,19.609 ZM78.414,3.060 C76.669,3.125 74.902,3.298 73.132,3.573 C66.645,4.612 60.721,7.004 55.609,10.426 C59.192,11.757 62.885,13.429 66.305,15.599 C71.241,18.737 75.624,22.940 78.414,28.707 L78.414,3.060 ZM78.368,41.498 C76.495,42.061 75.063,43.539 74.519,45.347 C75.748,45.414 77.047,45.418 78.382,45.357 C78.432,44.015 78.432,42.734 78.368,41.498 ZM78.382,48.604 C77.047,48.545 75.748,48.545 74.519,48.615 C75.081,50.495 76.555,51.922 78.368,52.463 C78.432,51.233 78.432,49.946 78.382,48.604 ZM117.368,84.260 C116.795,82.292 116.195,80.097 115.477,77.791 C114.061,79.422 112.527,80.964 110.902,82.388 C113.205,83.092 115.402,83.694 117.368,84.260 ZM114.365,74.355 C112.978,70.345 111.215,66.158 108.767,62.324 C104.575,55.759 98.390,50.304 88.558,48.910 C87.835,52.134 85.303,54.780 81.933,55.534 C83.349,65.358 88.812,71.515 95.387,75.702 C99.236,78.152 103.456,79.900 107.472,81.278 C110.028,79.226 112.328,76.902 114.365,74.355 ZM81.621,45.357 C82.957,45.418 84.252,45.414 85.481,45.347 C84.918,43.477 83.445,42.044 81.632,41.498 C81.568,42.734 81.568,44.015 81.621,45.357 ZM81.632,52.463 C83.519,51.903 84.936,50.432 85.481,48.615 C84.252,48.545 82.957,48.545 81.621,48.604 C81.568,49.946 81.568,51.233 81.632,52.463 ZM81.579,90.903 C83.324,90.838 85.091,90.666 86.857,90.392 C93.347,89.349 99.272,86.966 104.398,83.541 C100.801,82.201 97.115,80.535 93.692,78.368 C88.759,75.232 84.376,71.015 81.579,65.237 L81.579,90.903 ZM81.579,3.060 L81.579,28.724 C84.376,22.946 88.759,18.742 93.692,15.599 C97.111,13.429 100.797,11.767 104.373,10.437 C97.734,5.998 89.878,3.355 81.579,3.060 ZM107.454,12.691 C103.442,14.069 99.236,15.824 95.387,18.261 C88.812,22.459 83.349,28.609 81.933,38.423 C85.154,39.164 87.803,41.678 88.555,45.054 C98.390,43.665 104.575,38.202 108.767,31.640 C111.215,27.806 112.985,23.607 114.365,19.593 C112.325,17.040 109.999,14.719 107.454,12.691 ZM110.895,11.577 C112.524,12.997 114.058,14.534 115.477,16.169 C116.195,13.868 116.795,11.669 117.368,9.701 C115.402,10.272 113.205,10.876 110.895,11.577 ZM123.393,40.118 C122.387,33.676 120.012,27.781 116.614,22.679 C115.282,26.248 113.597,29.937 111.426,33.336 C108.290,38.250 104.087,42.619 98.334,45.396 L123.911,45.396 C123.847,43.652 123.677,41.886 123.393,40.118 ZM123.911,48.563 L98.334,48.563 C104.087,51.345 108.290,55.710 111.426,60.624 C113.597,64.014 115.282,67.687 116.603,71.266 C121.004,64.647 123.620,56.820 123.911,48.563 ZM36.743,116.518 C37.552,116.890 38.252,117.391 38.841,118.022 C39.431,118.652 39.924,119.381 40.322,120.207 C40.718,121.033 41.035,121.898 41.271,122.803 C41.506,123.708 41.674,124.624 41.772,125.552 C41.870,126.480 41.919,127.360 41.919,128.189 C41.919,128.917 41.872,129.614 41.778,130.280 C41.683,130.946 41.581,131.541 41.471,132.065 C41.337,132.677 41.188,133.252 41.023,133.793 L37.450,133.158 C37.678,132.618 37.893,132.003 38.093,131.313 C38.293,130.625 38.472,129.920 38.629,129.199 C37.678,129.113 36.729,129.059 35.782,129.035 C34.834,129.012 33.893,129.000 32.958,129.000 C32.227,129.000 31.495,129.004 30.765,129.012 C30.033,129.019 29.298,129.047 28.559,129.093 C28.717,129.759 28.902,130.425 29.114,131.091 C29.326,131.757 29.569,132.438 29.845,133.134 L26.119,133.816 C25.945,133.456 25.788,133.036 25.647,132.559 C25.529,132.153 25.421,131.657 25.323,131.073 C25.224,130.490 25.175,129.830 25.175,129.093 C25.175,128.130 25.217,127.137 25.299,126.116 C25.381,125.094 25.535,124.097 25.759,123.126 C25.983,122.155 26.297,121.235 26.702,120.365 C27.107,119.495 27.634,118.735 28.282,118.081 C28.931,117.427 29.717,116.909 30.640,116.530 C31.564,116.150 32.659,115.960 33.924,115.960 C34.994,115.960 35.933,116.146 36.743,116.518 ZM31.767,117.499 C31.256,117.703 30.798,117.980 30.393,118.333 C29.988,118.686 29.638,119.094 29.344,119.561 C29.049,120.026 28.807,120.524 28.618,121.053 C28.430,121.581 28.288,122.124 28.194,122.680 C28.100,123.236 28.052,123.779 28.052,124.312 C28.052,124.963 28.076,125.591 28.123,126.198 C28.170,126.805 28.245,127.402 28.347,127.989 C29.133,128.036 29.917,128.064 30.699,128.071 C31.482,128.080 32.274,128.083 33.075,128.083 C34.027,128.083 34.984,128.078 35.947,128.066 C36.910,128.054 37.879,128.012 38.854,127.943 C38.995,127.073 39.066,126.254 39.066,125.487 C39.066,124.931 39.024,124.340 38.942,123.713 C38.860,123.086 38.728,122.466 38.547,121.852 C38.366,121.237 38.132,120.647 37.845,120.083 C37.558,119.519 37.207,119.025 36.790,118.597 C36.373,118.170 35.892,117.830 35.345,117.575 C34.799,117.321 34.180,117.194 33.488,117.194 C32.852,117.194 32.277,117.295 31.767,117.499 ZM19.238,132.518 C19.195,132.013 19.136,131.451 19.061,130.833 C18.986,130.214 18.898,129.550 18.796,128.841 C18.694,128.132 18.582,127.406 18.460,126.662 C18.338,125.918 18.204,125.168 18.059,124.413 C17.913,123.656 17.760,122.924 17.599,122.216 C17.438,121.507 17.269,120.834 17.092,120.195 C16.915,119.556 16.736,118.979 16.556,118.462 C16.280,119.222 16.021,120.003 15.777,120.805 C15.533,121.608 15.307,122.410 15.099,123.208 C14.891,124.007 14.698,124.790 14.521,125.558 C14.345,126.325 14.186,127.050 14.044,127.731 C13.714,129.336 13.426,130.907 13.183,132.441 L10.377,132.805 C10.377,132.814 10.312,132.616 10.182,132.213 C10.052,131.809 9.870,131.265 9.634,130.580 C9.398,129.894 9.119,129.093 8.796,128.177 C8.474,127.261 8.125,126.294 7.747,125.276 C7.370,124.258 6.971,123.212 6.551,122.139 C6.130,121.066 5.707,120.033 5.283,119.038 C4.952,120.072 4.670,121.188 4.434,122.386 C4.198,123.584 4.000,124.821 3.838,126.097 C3.677,127.375 3.546,128.665 3.443,129.969 C3.341,131.273 3.262,132.539 3.208,133.769 L0.000,133.193 C0.087,132.458 0.206,131.627 0.360,130.703 C0.513,129.779 0.694,128.810 0.902,127.795 C1.111,126.782 1.339,125.748 1.586,124.694 C1.834,123.641 2.097,122.614 2.376,121.616 C2.655,120.618 2.944,119.672 3.243,118.779 C3.541,117.887 3.844,117.091 4.151,116.395 L6.874,116.230 C7.111,116.685 7.364,117.213 7.635,117.816 C7.906,118.420 8.189,119.067 8.484,119.760 C8.779,120.453 9.080,121.180 9.386,121.940 C9.693,122.699 9.995,123.469 10.294,124.248 C10.593,125.027 10.884,125.800 11.167,126.568 C11.450,127.336 11.717,128.076 11.969,128.788 C12.126,127.974 12.315,127.063 12.534,126.057 C12.755,125.050 13.004,124.005 13.283,122.921 C13.562,121.835 13.867,120.736 14.197,119.620 C14.527,118.504 14.881,117.428 15.258,116.395 L18.466,116.230 C18.938,117.475 19.445,118.932 19.987,120.600 C20.451,122.034 20.979,123.779 21.573,125.839 C22.166,127.899 22.782,130.261 23.418,132.923 L19.315,133.769 C19.307,133.441 19.281,133.023 19.238,132.518 ZM48.688,116.430 C49.325,116.390 49.957,116.363 50.586,116.348 C51.215,116.332 51.816,116.324 52.390,116.324 C53.019,116.324 53.652,116.375 54.289,116.477 C54.925,116.579 55.536,116.735 56.122,116.946 C56.708,117.158 57.256,117.425 57.767,117.745 C58.278,118.067 58.722,118.445 59.100,118.880 C59.477,119.313 59.774,119.807 59.990,120.360 C60.206,120.911 60.314,121.525 60.314,122.198 C60.314,122.855 60.167,123.443 59.872,123.960 C59.577,124.477 59.184,124.931 58.693,125.323 C58.201,125.714 57.636,126.047 56.995,126.321 C56.354,126.596 55.692,126.815 55.008,126.979 L60.314,132.759 L56.623,133.864 L52.709,127.390 C52.127,127.437 51.588,127.461 51.093,127.461 C50.629,127.461 50.170,127.453 49.713,127.437 C49.257,127.422 48.798,127.382 48.334,127.320 L48.287,133.546 L45.245,133.569 C45.260,130.813 45.240,128.031 45.186,125.222 C45.130,122.415 45.080,119.633 45.032,116.877 C45.590,116.759 46.180,116.665 46.801,116.594 C47.422,116.523 48.051,116.469 48.688,116.430 ZM48.358,126.168 C48.727,126.215 49.100,126.244 49.478,126.251 C49.855,126.259 50.240,126.262 50.633,126.262 C51.160,126.262 51.685,126.223 52.208,126.145 C52.730,126.067 53.228,125.947 53.699,125.787 C54.171,125.627 54.607,125.426 55.008,125.188 C55.409,124.949 55.757,124.671 56.052,124.354 C56.346,124.037 56.576,123.678 56.741,123.278 C56.907,122.879 56.989,122.444 56.989,121.975 C56.989,121.427 56.898,120.935 56.718,120.500 C56.537,120.065 56.291,119.682 55.980,119.349 C55.670,119.016 55.307,118.735 54.890,118.504 C54.473,118.273 54.029,118.082 53.557,117.934 C53.086,117.784 52.596,117.675 52.089,117.604 C51.582,117.534 51.081,117.499 50.586,117.499 C50.185,117.499 49.782,117.506 49.378,117.523 C48.972,117.538 48.570,117.570 48.169,117.617 L48.358,126.168 ZM61.108,149.344 C60.709,149.201 60.245,149.089 59.717,149.005 C59.188,148.923 58.645,148.858 58.090,148.810 C57.534,148.763 56.989,148.732 56.457,148.715 C55.924,148.700 55.447,148.692 55.023,148.692 L54.706,148.692 L55.388,164.139 L51.781,164.139 L52.204,148.810 C51.625,148.858 51.031,148.923 50.424,149.005 C49.817,149.089 49.234,149.191 48.674,149.314 C48.114,149.436 47.596,149.580 47.118,149.746 C46.641,149.912 46.245,150.101 45.932,150.314 L45.709,147.128 L61.249,147.034 L61.108,149.344 ZM65.337,127.995 C65.306,128.304 65.290,128.624 65.290,128.953 C65.290,129.720 65.416,130.384 65.668,130.944 C65.919,131.504 66.243,131.964 66.640,132.324 C67.037,132.684 67.481,132.951 67.973,133.123 C68.464,133.296 68.953,133.382 69.441,133.382 C70.337,133.382 71.109,133.156 71.758,132.706 C72.406,132.256 72.941,131.651 73.362,130.891 C73.782,130.131 74.090,129.248 74.287,128.242 C74.484,127.235 74.582,126.180 74.582,125.076 C74.582,124.457 74.533,123.774 74.434,123.026 C74.336,122.279 74.206,121.522 74.045,120.758 C73.884,119.996 73.695,119.256 73.479,118.539 C73.263,117.821 73.037,117.186 72.802,116.629 L76.740,116.125 C77.054,117.292 77.286,118.472 77.436,119.666 C77.585,120.861 77.660,122.056 77.660,123.255 C77.660,124.328 77.595,125.350 77.465,126.321 C77.335,127.292 77.127,128.193 76.840,129.024 C76.553,129.853 76.178,130.603 75.714,131.273 C75.250,131.942 74.686,132.514 74.022,132.989 C73.357,133.461 72.585,133.825 71.705,134.080 C70.824,134.334 69.822,134.462 68.698,134.462 C67.566,134.462 66.577,134.296 65.732,133.963 C64.887,133.630 64.174,133.143 63.592,132.500 C63.011,131.858 62.557,131.069 62.230,130.133 C61.904,129.198 61.694,128.122 61.599,126.908 L65.479,127.050 C65.416,127.370 65.368,127.687 65.337,127.995 ZM63.182,153.702 C63.404,152.723 63.718,151.796 64.121,150.919 C64.524,150.042 65.049,149.275 65.695,148.615 C66.341,147.956 67.125,147.434 68.044,147.051 C68.965,146.668 70.055,146.477 71.316,146.477 C72.380,146.477 73.316,146.665 74.123,147.039 C74.929,147.414 75.627,147.920 76.214,148.556 C76.801,149.191 77.293,149.926 77.688,150.759 C78.084,151.592 78.399,152.465 78.634,153.377 C78.869,154.289 79.035,155.213 79.133,156.149 C79.231,157.085 79.279,157.972 79.279,158.808 C79.279,159.542 79.233,160.246 79.139,160.917 C79.045,161.589 78.943,162.189 78.834,162.717 C78.701,163.334 78.551,163.914 78.387,164.459 L74.828,163.820 C75.056,163.274 75.268,162.655 75.469,161.959 C75.668,161.264 75.846,160.553 76.003,159.827 C75.056,159.740 74.110,159.685 73.166,159.661 C72.222,159.638 71.284,159.626 70.352,159.626 C69.624,159.626 68.896,159.630 68.167,159.638 C67.439,159.646 66.707,159.673 65.972,159.720 C66.127,160.392 66.312,161.063 66.523,161.735 C66.734,162.406 66.977,163.093 67.252,163.795 L63.539,164.482 C63.367,164.120 63.211,163.696 63.070,163.215 C62.952,162.805 62.845,162.305 62.747,161.716 C62.649,161.128 62.600,160.463 62.600,159.720 C62.600,158.749 62.641,157.748 62.723,156.718 C62.806,155.687 62.959,154.682 63.182,153.702 ZM65.537,156.800 C65.584,157.413 65.658,158.015 65.760,158.607 C66.543,158.654 67.324,158.682 68.103,158.690 C68.882,158.698 69.671,158.702 70.470,158.702 C71.418,158.702 72.371,158.696 73.331,158.684 C74.290,158.672 75.255,158.630 76.226,158.560 C76.367,157.683 76.437,156.858 76.437,156.084 C76.437,155.523 76.396,154.927 76.314,154.295 C76.231,153.663 76.101,153.038 75.921,152.418 C75.740,151.798 75.508,151.203 75.221,150.634 C74.936,150.066 74.585,149.567 74.171,149.136 C73.756,148.705 73.275,148.363 72.731,148.105 C72.187,147.849 71.571,147.721 70.881,147.721 C70.247,147.721 69.676,147.823 69.167,148.028 C68.657,148.234 68.201,148.514 67.798,148.869 C67.395,149.225 67.046,149.637 66.752,150.108 C66.459,150.577 66.218,151.079 66.030,151.612 C65.842,152.145 65.701,152.692 65.608,153.253 C65.513,153.813 65.466,154.362 65.466,154.899 C65.466,155.555 65.490,156.188 65.537,156.800 ZM80.767,123.126 C80.991,122.155 81.305,121.235 81.710,120.365 C82.115,119.495 82.641,118.735 83.290,118.081 C83.938,117.427 84.724,116.909 85.648,116.530 C86.572,116.150 87.666,115.960 88.932,115.960 C90.001,115.960 90.941,116.146 91.751,116.518 C92.560,116.890 93.260,117.391 93.849,118.022 C94.439,118.652 94.932,119.381 95.329,120.207 C95.726,121.033 96.043,121.898 96.278,122.803 C96.514,123.708 96.681,124.624 96.780,125.552 C96.878,126.480 96.927,127.360 96.927,128.189 C96.927,128.917 96.880,129.614 96.785,130.280 C96.691,130.946 96.589,131.541 96.479,132.065 C96.345,132.677 96.196,133.252 96.031,133.793 L92.458,133.158 C92.686,132.618 92.900,132.003 93.100,131.313 C93.301,130.625 93.480,129.920 93.637,129.199 C92.686,129.113 91.737,129.059 90.790,129.035 C89.842,129.012 88.901,129.000 87.966,129.000 C87.234,129.000 86.503,129.004 85.772,129.012 C85.041,129.019 84.306,129.047 83.567,129.093 C83.724,129.759 83.909,130.425 84.122,131.091 C84.334,131.757 84.577,132.438 84.852,133.135 L81.126,133.816 C80.953,133.456 80.796,133.036 80.654,132.559 C80.537,132.153 80.429,131.657 80.331,131.073 C80.232,130.490 80.183,129.830 80.183,129.093 C80.183,128.130 80.224,127.137 80.307,126.116 C80.389,125.094 80.543,124.097 80.767,123.126 ZM83.131,126.198 C83.178,126.805 83.252,127.402 83.355,127.989 C84.141,128.036 84.925,128.064 85.707,128.071 C86.489,128.080 87.281,128.083 88.083,128.083 C89.034,128.083 89.992,128.078 90.955,128.066 C91.917,128.054 92.887,128.012 93.861,127.943 C94.003,127.073 94.074,126.254 94.074,125.487 C94.074,124.931 94.032,124.340 93.950,123.713 C93.867,123.086 93.736,122.466 93.554,121.852 C93.374,121.237 93.140,120.647 92.853,120.083 C92.566,119.519 92.214,119.025 91.798,118.597 C91.381,118.170 90.899,117.830 90.353,117.575 C89.807,117.321 89.188,117.194 88.496,117.194 C87.859,117.194 87.285,117.295 86.774,117.499 C86.263,117.703 85.806,117.981 85.401,118.333 C84.996,118.686 84.646,119.094 84.351,119.561 C84.056,120.026 83.815,120.524 83.626,121.053 C83.437,121.581 83.296,122.124 83.202,122.680 C83.108,123.236 83.060,123.779 83.060,124.312 C83.060,124.963 83.083,125.591 83.131,126.198 ZM85.829,150.641 C85.707,151.940 85.600,153.251 85.505,154.574 C85.411,155.896 85.337,157.214 85.283,158.524 C85.227,159.835 85.204,161.118 85.212,162.374 L85.212,162.907 C85.619,162.892 86.112,162.862 86.692,162.818 C87.272,162.776 87.890,162.716 88.548,162.640 C89.206,162.566 89.877,162.471 90.563,162.357 C91.248,162.241 91.902,162.107 92.524,161.954 C93.146,161.800 93.712,161.622 94.222,161.420 C94.731,161.219 95.137,160.992 95.443,160.739 L95.279,164.115 L82.639,164.162 L82.381,147.354 L86.198,146.844 C86.073,148.076 85.950,149.342 85.829,150.641 ZM97.375,150.913 C97.536,150.135 97.744,149.387 97.998,148.668 C98.253,147.949 98.568,147.310 98.944,146.749 L102.749,147.614 C102.483,148.009 102.227,148.457 101.980,148.958 C101.733,149.460 101.502,149.991 101.287,150.552 C101.072,151.112 100.876,151.691 100.699,152.287 C100.524,152.884 100.371,153.476 100.241,154.064 C100.112,154.652 100.013,155.227 99.942,155.787 C99.871,156.349 99.836,156.870 99.836,157.351 C99.836,158.243 99.949,159.078 100.177,159.851 C100.404,160.625 100.748,161.301 101.210,161.877 C101.672,162.454 102.260,162.905 102.972,163.233 C103.685,163.561 104.523,163.725 105.486,163.725 C106.113,163.725 106.681,163.622 107.190,163.416 C107.698,163.212 108.153,162.931 108.552,162.576 C108.952,162.221 109.298,161.805 109.591,161.331 C109.886,160.858 110.126,160.357 110.314,159.827 C110.502,159.298 110.643,158.751 110.737,158.186 C110.830,157.622 110.878,157.075 110.878,156.545 C110.878,156.136 110.840,155.665 110.766,155.137 C110.692,154.607 110.586,154.054 110.449,153.477 C110.312,152.901 110.152,152.317 109.967,151.724 C109.783,151.132 109.582,150.566 109.363,150.024 C109.143,149.483 108.910,148.986 108.664,148.532 C108.417,148.078 108.168,147.701 107.918,147.401 L111.865,146.477 C112.194,147.109 112.472,147.783 112.698,148.502 C112.926,149.221 113.110,149.956 113.251,150.706 C113.391,151.456 113.494,152.208 113.556,152.963 C113.619,153.717 113.650,154.449 113.650,155.160 C113.650,156.486 113.477,157.742 113.133,158.927 C112.789,160.112 112.262,161.152 111.553,162.048 C110.845,162.945 109.952,163.656 108.875,164.181 C107.799,164.705 106.528,164.968 105.064,164.968 C104.132,164.968 103.284,164.848 102.520,164.607 C101.757,164.366 101.074,164.028 100.470,163.594 C99.868,163.160 99.342,162.647 98.897,162.055 C98.450,161.462 98.082,160.811 97.793,160.100 C97.503,159.388 97.285,158.637 97.140,157.843 C96.995,157.049 96.923,156.238 96.923,155.409 C96.923,154.745 96.958,154.024 97.029,153.246 C97.100,152.469 97.215,151.691 97.375,150.913 ZM112.952,127.731 C112.621,129.336 112.334,130.907 112.091,132.441 L109.284,132.805 C109.284,132.814 109.220,132.616 109.090,132.213 C108.960,131.809 108.777,131.265 108.542,130.580 C108.306,129.894 108.027,129.093 107.704,128.177 C107.382,127.261 107.033,126.294 106.655,125.276 C106.278,124.258 105.879,123.212 105.458,122.139 C105.038,121.066 104.615,120.033 104.191,119.038 C103.860,120.072 103.577,121.188 103.342,122.386 C103.106,123.584 102.907,124.821 102.746,126.098 C102.585,127.375 102.453,128.665 102.351,129.969 C102.249,131.273 102.170,132.539 102.115,133.769 L98.908,133.193 C98.995,132.458 99.114,131.627 99.267,130.703 C99.421,129.779 99.602,128.810 99.810,127.795 C100.018,126.782 100.246,125.748 100.494,124.694 C100.741,123.641 101.005,122.614 101.284,121.616 C101.563,120.618 101.852,119.672 102.150,118.779 C102.449,117.887 102.752,117.091 103.058,116.395 L105.782,116.230 C106.019,116.685 106.272,117.213 106.543,117.816 C106.814,118.420 107.097,119.067 107.392,119.760 C107.687,120.453 107.988,121.180 108.294,121.940 C108.601,122.699 108.903,123.469 109.202,124.248 C109.500,125.027 109.791,125.800 110.075,126.568 C110.358,127.336 110.624,128.076 110.877,128.788 C111.034,127.974 111.222,127.063 111.442,126.057 C111.663,125.050 111.912,124.005 112.191,122.921 C112.470,121.835 112.775,120.736 113.105,119.620 C113.435,118.504 113.789,117.428 114.166,116.395 L117.373,116.230 C117.846,117.475 118.353,118.932 118.895,120.600 C119.358,122.034 119.887,123.779 120.481,125.839 C121.074,127.899 121.689,130.261 122.326,132.923 L118.223,133.769 C118.215,133.441 118.189,133.023 118.146,132.518 C118.103,132.013 118.043,131.451 117.969,130.833 C117.894,130.214 117.806,129.550 117.704,128.841 C117.602,128.132 117.489,127.406 117.368,126.662 C117.246,125.918 117.112,125.168 116.967,124.413 C116.821,123.656 116.668,122.924 116.507,122.216 C116.346,121.507 116.177,120.834 116.000,120.195 C115.823,119.556 115.644,118.979 115.463,118.462 C115.188,119.222 114.929,120.003 114.685,120.805 C114.441,121.609 114.215,122.410 114.007,123.208 C113.798,124.007 113.606,124.790 113.429,125.558 C113.253,126.325 113.093,127.050 112.952,127.731 Z" class="cls-1"/>
</svg>
