<svg xmlns="http://www.w3.org/2000/svg" xmlns:xlink="http://www.w3.org/1999/xlink" preserveAspectRatio="xMidYMid" width="152" height="122" viewBox="0 0 152 122">
  <defs>
    <style>
      .cls-1 {
        fill: #bd1717;
        fill-rule: evenodd;
      }
    </style>
  </defs>
  <path d="M151.866,91.435 C151.777,92.060 151.679,92.619 151.575,93.111 C151.448,93.685 151.305,94.225 151.149,94.733 L147.755,94.137 C147.971,93.630 148.175,93.053 148.366,92.405 C148.555,91.759 148.726,91.097 148.875,90.420 C147.971,90.340 147.069,90.288 146.169,90.266 C145.269,90.244 144.375,90.233 143.487,90.233 C142.792,90.233 142.097,90.237 141.403,90.244 C140.709,90.252 140.010,90.277 139.308,90.321 C139.458,90.946 139.633,91.571 139.835,92.196 C140.037,92.822 140.268,93.461 140.529,94.115 L136.990,94.754 C136.825,94.417 136.676,94.023 136.541,93.575 C136.430,93.193 136.327,92.727 136.234,92.179 C136.140,91.632 136.093,91.013 136.093,90.321 C136.093,89.417 136.133,88.485 136.211,87.526 C136.289,86.566 136.435,85.630 136.648,84.719 C136.861,83.807 137.159,82.944 137.544,82.127 C137.929,81.311 138.429,80.597 139.045,79.983 C139.661,79.369 140.408,78.883 141.285,78.527 C142.163,78.170 143.203,77.992 144.405,77.992 C145.421,77.992 146.313,78.167 147.082,78.516 C147.851,78.864 148.516,79.335 149.077,79.927 C149.636,80.519 150.106,81.203 150.482,81.979 C150.860,82.754 151.159,83.567 151.384,84.416 C151.608,85.265 151.766,86.125 151.860,86.996 C151.953,87.868 151.999,88.693 151.999,89.472 C151.999,90.155 151.956,90.810 151.866,91.435 ZM149.172,85.270 C149.093,84.682 148.969,84.100 148.796,83.523 C148.624,82.946 148.403,82.392 148.129,81.862 C147.857,81.333 147.522,80.869 147.127,80.468 C146.732,80.067 146.273,79.747 145.756,79.508 C145.236,79.270 144.648,79.150 143.991,79.150 C143.386,79.150 142.840,79.245 142.355,79.436 C141.870,79.628 141.435,79.889 141.050,80.219 C140.665,80.551 140.333,80.934 140.053,81.372 C139.773,81.809 139.544,82.276 139.364,82.773 C139.185,83.269 139.050,83.778 138.961,84.300 C138.872,84.822 138.826,85.332 138.826,85.833 C138.826,86.444 138.849,87.033 138.894,87.603 C138.939,88.173 139.009,88.733 139.107,89.285 C139.853,89.329 140.598,89.354 141.341,89.361 C142.084,89.370 142.837,89.373 143.599,89.373 C144.502,89.373 145.412,89.368 146.327,89.356 C147.242,89.345 148.162,89.306 149.087,89.241 C149.222,88.424 149.289,87.656 149.289,86.936 C149.289,86.414 149.249,85.858 149.172,85.270 ZM133.360,93.111 C133.233,93.685 133.091,94.225 132.935,94.733 L129.540,94.137 C129.757,93.630 129.960,93.053 130.151,92.405 C130.341,91.759 130.511,91.097 130.660,90.420 C129.757,90.340 128.855,90.288 127.955,90.266 C127.055,90.244 126.161,90.233 125.272,90.233 C124.578,90.233 123.883,90.237 123.189,90.244 C122.494,90.252 121.796,90.277 121.094,90.321 C121.243,90.946 121.419,91.571 121.621,92.196 C121.822,92.822 122.053,93.461 122.315,94.115 L118.775,94.754 C118.610,94.417 118.461,94.023 118.327,93.575 C118.215,93.193 118.112,92.727 118.019,92.179 C117.926,91.632 117.879,91.013 117.879,90.321 C117.879,89.417 117.918,88.485 117.996,87.526 C118.075,86.566 118.221,85.630 118.433,84.719 C118.646,83.807 118.945,82.944 119.330,82.127 C119.714,81.311 120.215,80.597 120.831,79.983 C121.447,79.369 122.193,78.883 123.071,78.527 C123.948,78.170 124.988,77.992 126.191,77.992 C127.206,77.992 128.099,78.167 128.868,78.516 C129.637,78.864 130.302,79.335 130.862,79.927 C131.422,80.519 131.891,81.203 132.268,81.979 C132.645,82.754 132.946,83.567 133.169,84.416 C133.393,85.265 133.552,86.125 133.646,86.996 C133.739,87.868 133.786,88.693 133.786,89.472 C133.786,90.155 133.741,90.810 133.651,91.435 C133.562,92.060 133.465,92.619 133.360,93.111 ZM130.957,85.270 C130.879,84.682 130.754,84.100 130.582,83.523 C130.410,82.946 130.188,82.392 129.916,81.862 C129.643,81.333 129.309,80.869 128.913,80.468 C128.517,80.067 128.060,79.747 127.541,79.508 C127.021,79.270 126.433,79.150 125.776,79.150 C125.172,79.150 124.626,79.245 124.141,79.436 C123.655,79.628 123.220,79.889 122.836,80.219 C122.451,80.551 122.119,80.934 121.839,81.372 C121.559,81.809 121.329,82.276 121.150,82.773 C120.971,83.269 120.836,83.778 120.747,84.300 C120.657,84.822 120.612,85.332 120.612,85.833 C120.612,86.444 120.634,87.033 120.680,87.603 C120.724,88.173 120.795,88.733 120.892,89.285 C121.639,89.329 122.384,89.354 123.127,89.361 C123.870,89.370 124.622,89.373 125.384,89.373 C126.288,89.373 127.197,89.368 128.112,89.356 C129.027,89.345 129.947,89.306 130.873,89.241 C131.008,88.424 131.075,87.656 131.075,86.936 C131.075,86.414 131.035,85.858 130.957,85.270 ZM112.238,93.536 C112.197,93.062 112.141,92.534 112.071,91.954 C111.999,91.373 111.916,90.750 111.819,90.084 C111.721,89.419 111.615,88.737 111.500,88.039 C111.384,87.340 111.256,86.636 111.119,85.927 C110.980,85.217 110.834,84.529 110.682,83.864 C110.528,83.199 110.368,82.567 110.200,81.967 C110.032,81.368 109.862,80.826 109.690,80.341 C109.429,81.054 109.182,81.787 108.951,82.540 C108.719,83.294 108.505,84.046 108.307,84.796 C108.109,85.546 107.926,86.281 107.758,87.002 C107.590,87.722 107.439,88.403 107.304,89.042 C106.990,90.549 106.718,92.024 106.486,93.464 L103.820,93.806 C103.820,93.814 103.759,93.628 103.636,93.249 C103.512,92.871 103.339,92.360 103.115,91.717 C102.891,91.073 102.626,90.321 102.319,89.461 C102.013,88.601 101.681,87.693 101.322,86.737 C100.964,85.782 100.585,84.799 100.186,83.793 C99.786,82.785 99.384,81.815 98.981,80.881 C98.667,81.852 98.399,82.900 98.175,84.024 C97.951,85.149 97.762,86.311 97.609,87.509 C97.456,88.708 97.331,89.919 97.234,91.143 C97.136,92.367 97.062,93.556 97.010,94.710 L93.963,94.170 C94.045,93.479 94.159,92.700 94.304,91.832 C94.450,90.965 94.622,90.055 94.820,89.103 C95.017,88.151 95.234,87.180 95.469,86.191 C95.704,85.203 95.955,84.239 96.220,83.302 C96.485,82.364 96.759,81.476 97.043,80.638 C97.327,79.801 97.615,79.054 97.905,78.400 L100.493,78.245 C100.718,78.672 100.958,79.168 101.216,79.734 C101.474,80.301 101.742,80.909 102.022,81.559 C102.302,82.210 102.588,82.892 102.879,83.605 C103.171,84.319 103.458,85.041 103.742,85.772 C104.025,86.504 104.302,87.229 104.571,87.951 C104.840,88.671 105.093,89.366 105.333,90.035 C105.482,89.270 105.661,88.415 105.870,87.471 C106.079,86.525 106.316,85.544 106.581,84.526 C106.846,83.507 107.136,82.475 107.450,81.427 C107.764,80.380 108.100,79.370 108.458,78.400 L111.505,78.245 C111.953,79.414 112.435,80.782 112.950,82.348 C113.390,83.693 113.893,85.332 114.457,87.266 C115.020,89.200 115.605,91.417 116.210,93.916 L112.312,94.710 C112.304,94.402 112.280,94.010 112.238,93.536 ZM91.655,93.111 C91.528,93.685 91.386,94.225 91.230,94.733 L87.835,94.137 C88.052,93.630 88.255,93.053 88.445,92.405 C88.636,91.759 88.806,91.097 88.955,90.420 C88.052,90.340 87.150,90.288 86.250,90.266 C85.350,90.244 84.456,90.233 83.567,90.233 C82.873,90.233 82.178,90.237 81.484,90.244 C80.789,90.252 80.091,90.277 79.389,90.321 C79.538,90.946 79.714,91.571 79.915,92.196 C80.117,92.822 80.348,93.461 80.610,94.115 L77.070,94.754 C76.905,94.417 76.756,94.023 76.622,93.575 C76.510,93.193 76.407,92.727 76.314,92.179 C76.221,91.632 76.174,91.013 76.174,90.321 C76.174,89.417 76.213,88.485 76.291,87.526 C76.370,86.566 76.516,85.630 76.728,84.719 C76.941,83.807 77.239,82.944 77.625,82.127 C78.009,81.311 78.509,80.597 79.126,79.983 C79.741,79.369 80.488,78.883 81.366,78.527 C82.243,78.170 83.283,77.992 84.485,77.992 C85.501,77.992 86.394,78.167 87.163,78.516 C87.932,78.864 88.597,79.335 89.157,79.927 C89.717,80.519 90.186,81.203 90.563,81.979 C90.940,82.754 91.240,83.567 91.464,84.416 C91.688,85.265 91.847,86.125 91.941,86.996 C92.034,87.868 92.081,88.693 92.081,89.472 C92.081,90.155 92.036,90.810 91.946,91.435 C91.857,92.060 91.759,92.619 91.655,93.111 ZM89.252,85.270 C89.174,84.682 89.049,84.100 88.877,83.523 C88.705,82.946 88.483,82.392 88.211,81.862 C87.938,81.333 87.604,80.869 87.208,80.468 C86.812,80.067 86.355,79.747 85.835,79.508 C85.316,79.270 84.728,79.150 84.071,79.150 C83.467,79.150 82.921,79.245 82.436,79.436 C81.950,79.628 81.515,79.889 81.131,80.219 C80.746,80.551 80.414,80.934 80.134,81.372 C79.854,81.809 79.624,82.276 79.445,82.773 C79.265,83.269 79.131,83.778 79.041,84.300 C78.952,84.822 78.907,85.332 78.907,85.833 C78.907,86.444 78.929,87.033 78.974,87.603 C79.019,88.173 79.090,88.733 79.187,89.285 C79.934,89.329 80.679,89.354 81.422,89.361 C82.165,89.370 82.917,89.373 83.679,89.373 C84.583,89.373 85.492,89.368 86.407,89.356 C87.321,89.345 88.242,89.306 89.168,89.241 C89.303,88.424 89.370,87.656 89.370,86.936 C89.370,86.414 89.330,85.858 89.252,85.270 ZM72.998,90.256 C72.725,91.034 72.369,91.738 71.928,92.367 C71.487,92.996 70.952,93.533 70.321,93.978 C69.690,94.422 68.956,94.763 68.120,95.003 C67.283,95.241 66.331,95.361 65.263,95.361 C64.188,95.361 63.248,95.205 62.446,94.892 C61.643,94.580 60.965,94.123 60.412,93.519 C59.860,92.917 59.429,92.176 59.119,91.297 C58.809,90.419 58.609,89.410 58.519,88.270 L62.205,88.403 C62.145,88.704 62.100,89.000 62.070,89.290 C62.040,89.580 62.026,89.880 62.026,90.189 C62.026,90.909 62.145,91.532 62.384,92.058 C62.623,92.584 62.931,93.016 63.308,93.354 C63.685,93.692 64.107,93.943 64.574,94.103 C65.041,94.266 65.506,94.347 65.969,94.347 C66.820,94.347 67.554,94.135 68.170,93.713 C68.786,93.290 69.294,92.722 69.694,92.008 C70.093,91.295 70.386,90.466 70.573,89.522 C70.759,88.577 70.853,87.586 70.853,86.550 C70.853,85.969 70.806,85.327 70.713,84.625 C70.620,83.924 70.496,83.214 70.343,82.496 C70.190,81.780 70.011,81.086 69.805,80.412 C69.600,79.739 69.386,79.143 69.162,78.620 L72.903,78.146 C73.202,79.242 73.422,80.350 73.564,81.471 C73.706,82.593 73.777,83.715 73.777,84.840 C73.777,85.847 73.715,86.807 73.592,87.718 C73.469,88.630 73.271,89.476 72.998,90.256 ZM57.263,55.918 C57.277,55.950 57.284,55.975 57.277,56.030 C57.307,56.092 57.314,56.157 57.302,56.226 C57.314,56.308 57.307,56.374 57.277,56.445 C57.277,56.494 57.272,56.519 57.263,56.548 C57.245,56.617 57.215,56.675 57.222,56.660 C57.185,56.737 57.180,56.737 57.113,56.851 C57.134,56.817 57.083,56.892 57.005,56.949 C56.971,57.006 56.913,57.050 56.856,57.068 C56.791,57.128 56.742,57.160 56.682,57.170 C56.643,57.197 56.622,57.204 56.606,57.210 C56.564,57.227 56.525,57.231 56.491,57.227 C56.417,57.254 56.357,57.260 56.293,57.247 C56.203,57.260 56.140,57.254 56.082,57.227 C56.029,57.227 56.002,57.220 55.972,57.210 C54.126,56.617 51.502,55.960 48.637,55.031 C44.814,57.861 40.283,59.839 35.263,60.630 C26.860,61.963 18.718,59.720 12.374,55.025 C9.504,55.960 6.878,56.617 5.031,57.210 C4.989,57.227 4.955,57.231 4.922,57.227 C4.853,57.254 4.780,57.266 4.707,57.247 C4.622,57.260 4.562,57.254 4.509,57.227 C4.454,57.231 4.424,57.227 4.394,57.210 C4.371,57.200 4.337,57.192 4.318,57.170 C4.242,57.147 4.191,57.115 4.144,57.068 C4.064,57.034 4.025,56.999 3.992,56.949 C3.932,56.904 3.896,56.856 3.877,56.803 C3.847,56.786 3.840,56.774 3.797,56.700 C3.797,56.700 3.764,56.627 3.741,56.548 C3.725,56.514 3.714,56.474 3.725,56.445 C3.698,56.404 3.691,56.328 3.700,56.226 C3.691,56.143 3.698,56.088 3.725,56.030 C3.709,55.990 3.725,55.959 3.741,55.918 C4.337,54.066 4.989,51.445 5.934,48.573 C3.130,44.772 1.171,40.256 0.383,35.263 C-0.941,26.889 1.280,18.767 5.939,12.424 C4.989,9.555 4.337,6.933 3.741,5.077 C3.725,5.036 3.709,5.002 3.725,4.963 C3.698,4.910 3.691,4.854 3.700,4.768 C3.691,4.669 3.698,4.598 3.725,4.561 C3.714,4.523 3.725,4.481 3.741,4.449 C3.764,4.371 3.797,4.301 3.797,4.297 C3.840,4.225 3.847,4.215 3.877,4.195 C3.896,4.140 3.933,4.092 3.992,4.048 C4.025,3.995 4.064,3.961 4.144,3.924 C4.191,3.878 4.242,3.853 4.318,3.825 C4.337,3.805 4.371,3.796 4.394,3.782 C4.424,3.775 4.454,3.764 4.509,3.771 C4.562,3.741 4.622,3.740 4.707,3.748 C4.780,3.740 4.853,3.741 4.922,3.775 C4.955,3.764 4.989,3.775 5.031,3.782 C6.876,4.381 9.504,5.035 12.361,5.968 C16.188,3.136 20.721,1.156 25.735,0.365 C34.137,-0.962 42.284,1.280 48.626,5.968 C51.497,5.035 54.122,4.381 55.972,3.782 C56.002,3.775 56.029,3.764 56.082,3.775 C56.140,3.741 56.203,3.740 56.293,3.748 C56.357,3.740 56.417,3.741 56.491,3.771 C56.525,3.764 56.564,3.775 56.606,3.782 C56.622,3.796 56.643,3.796 56.682,3.825 C56.742,3.839 56.791,3.865 56.856,3.924 C56.913,3.950 56.971,3.991 57.005,4.048 C57.084,4.105 57.134,4.174 57.113,4.147 C57.180,4.259 57.185,4.259 57.222,4.337 C57.215,4.325 57.245,4.381 57.263,4.449 C57.272,4.476 57.277,4.504 57.277,4.561 C57.307,4.627 57.314,4.690 57.302,4.768 C57.314,4.835 57.307,4.903 57.277,4.963 C57.288,5.003 57.277,5.036 57.263,5.077 C56.668,6.933 56.008,9.551 55.070,12.421 C57.874,16.228 59.831,20.744 60.615,25.732 C61.941,34.104 59.717,42.232 55.061,48.569 C56.008,51.436 56.663,54.066 57.263,55.918 ZM12.682,52.760 C15.288,51.867 18.012,50.733 20.512,49.142 C24.784,46.424 28.331,42.428 29.245,36.056 C27.155,35.575 25.436,33.940 24.939,31.750 C18.564,32.655 14.552,36.196 11.832,40.458 C10.241,42.954 9.097,45.672 8.197,48.278 C9.524,49.936 11.032,51.436 12.682,52.760 ZM26.943,31.559 C27.308,32.779 28.265,33.705 29.441,34.057 C29.482,33.258 29.482,32.423 29.450,31.551 C28.583,31.513 27.741,31.513 26.943,31.559 ZM29.450,29.444 C29.482,28.573 29.482,27.741 29.441,26.938 C28.225,27.304 27.297,28.263 26.943,29.437 C27.741,29.481 28.583,29.483 29.450,29.444 ZM10.453,53.478 C9.392,52.560 8.396,51.562 7.478,50.501 C7.016,52.005 6.622,53.420 6.251,54.697 C7.531,54.330 8.954,53.938 10.453,53.478 ZM2.331,34.950 C2.999,39.140 4.537,42.962 6.747,46.273 C7.611,43.953 8.698,41.564 10.106,39.354 C12.142,36.164 14.871,33.331 18.605,31.525 L2.000,31.525 C2.048,32.658 2.154,33.804 2.331,34.950 ZM2.000,29.469 L18.603,29.469 C14.864,27.666 12.142,24.830 10.106,21.640 C8.698,19.445 7.611,17.053 6.747,14.736 C3.896,19.031 2.191,24.111 2.000,29.469 ZM6.251,6.298 C6.622,7.575 7.016,9.002 7.478,10.496 C8.396,9.438 9.390,8.437 10.442,7.515 C8.950,7.060 7.528,6.665 6.251,6.298 ZM8.204,12.729 C9.097,15.332 10.241,18.050 11.832,20.539 C14.552,24.799 18.564,28.345 24.939,29.247 C25.418,27.155 27.063,25.437 29.250,24.943 C28.331,18.572 24.784,14.580 20.512,11.854 C18.012,10.268 15.285,9.129 12.670,8.235 C11.021,9.565 9.520,11.073 8.204,12.729 ZM29.471,1.986 C28.338,2.029 27.192,2.141 26.043,2.320 C21.834,2.994 17.989,4.546 14.672,6.768 C16.997,7.632 19.393,8.718 21.613,10.126 C24.816,12.163 27.660,14.892 29.471,18.635 L29.471,1.986 ZM29.471,42.359 C27.660,46.105 24.816,48.837 21.613,50.873 C19.400,52.279 17.002,53.358 14.676,54.223 C18.988,57.103 24.090,58.822 29.471,59.014 L29.471,42.359 ZM54.749,54.697 C54.377,53.420 53.988,51.995 53.522,50.498 C52.604,51.557 51.608,52.558 50.554,53.482 C52.048,53.939 53.474,54.330 54.749,54.697 ZM52.800,48.268 C51.900,45.665 50.756,42.947 49.168,40.458 C46.448,36.196 42.434,32.655 36.054,31.750 C35.584,33.843 33.942,35.561 31.755,36.050 C32.673,42.428 36.218,46.424 40.485,49.142 C42.983,50.733 45.722,51.867 48.327,52.762 C49.986,51.429 51.479,49.921 52.800,48.268 ZM34.057,29.437 C33.692,28.223 32.735,27.293 31.559,26.938 C31.518,27.741 31.518,28.573 31.552,29.444 C32.419,29.483 33.259,29.481 34.057,29.437 ZM31.552,31.551 C31.518,32.423 31.518,33.258 31.559,34.057 C32.784,33.693 33.703,32.738 34.057,31.559 C33.259,31.513 32.419,31.513 31.552,31.551 ZM31.524,59.010 C32.657,58.967 33.804,58.856 34.950,58.678 C39.162,58.001 43.006,56.454 46.333,54.231 C43.998,53.361 41.606,52.279 39.385,50.873 C36.184,48.837 33.340,46.099 31.524,42.349 L31.524,59.010 ZM31.524,1.986 L31.524,18.646 C33.340,14.895 36.184,12.166 39.385,10.126 C41.604,8.718 43.996,7.639 46.317,6.775 C42.008,3.893 36.910,2.178 31.524,1.986 ZM48.316,8.239 C45.712,9.133 42.983,10.272 40.485,11.854 C36.218,14.580 32.673,18.572 31.755,24.943 C33.845,25.423 35.563,27.055 36.051,29.247 C42.434,28.345 46.448,24.799 49.168,20.539 C50.756,18.050 51.905,15.325 52.800,12.719 C51.477,11.061 49.968,9.555 48.316,8.239 ZM50.549,7.515 C51.606,8.437 52.601,9.435 53.522,10.496 C53.988,9.002 54.377,7.575 54.749,6.298 C53.474,6.668 52.048,7.060 50.549,7.515 ZM58.659,26.042 C58.007,21.861 56.465,18.034 54.260,14.722 C53.396,17.039 52.302,19.434 50.893,21.640 C48.858,24.830 46.131,27.666 42.397,29.469 L58.995,29.469 C58.954,28.337 58.844,27.191 58.659,26.042 ZM58.995,31.525 L42.397,31.525 C46.131,33.331 48.858,36.164 50.893,39.354 C52.302,41.555 53.395,43.939 54.253,46.262 C57.109,41.966 58.807,36.885 58.995,31.525 ZM0.857,89.103 C1.055,88.151 1.272,87.180 1.507,86.191 C1.742,85.203 1.992,84.239 2.257,83.302 C2.522,82.364 2.797,81.476 3.080,80.638 C3.364,79.801 3.652,79.054 3.943,78.400 L6.531,78.245 C6.755,78.672 6.996,79.168 7.253,79.734 C7.511,80.301 7.780,80.909 8.060,81.559 C8.340,82.210 8.626,82.892 8.917,83.605 C9.208,84.319 9.496,85.041 9.779,85.772 C10.063,86.504 10.339,87.229 10.609,87.951 C10.877,88.671 11.131,89.366 11.370,90.035 C11.519,89.270 11.699,88.415 11.908,87.471 C12.117,86.525 12.354,85.544 12.619,84.526 C12.884,83.507 13.174,82.475 13.487,81.427 C13.801,80.380 14.137,79.370 14.495,78.400 L17.542,78.245 C17.991,79.414 18.472,80.782 18.987,82.348 C19.428,83.693 19.930,85.332 20.494,87.266 C21.058,89.200 21.643,91.417 22.247,93.916 L18.349,94.710 C18.341,94.402 18.317,94.010 18.276,93.536 C18.235,93.062 18.179,92.534 18.108,91.954 C18.037,91.373 17.953,90.750 17.856,90.084 C17.759,89.419 17.652,88.737 17.537,88.039 C17.421,87.340 17.294,86.636 17.156,85.927 C17.017,85.217 16.872,84.529 16.719,83.864 C16.566,83.199 16.405,82.567 16.238,81.967 C16.069,81.368 15.899,80.826 15.728,80.341 C15.466,81.054 15.220,81.787 14.988,82.540 C14.757,83.294 14.542,84.046 14.344,84.796 C14.146,85.546 13.963,86.281 13.795,87.002 C13.628,87.722 13.476,88.403 13.342,89.042 C13.028,90.549 12.755,92.024 12.524,93.464 L9.858,93.806 C9.858,93.814 9.796,93.628 9.673,93.249 C9.550,92.871 9.376,92.360 9.152,91.717 C8.928,91.073 8.663,90.321 8.357,89.461 C8.051,88.601 7.719,87.693 7.360,86.737 C7.001,85.782 6.622,84.799 6.223,83.793 C5.824,82.785 5.422,81.815 5.019,80.881 C4.705,81.852 4.436,82.899 4.212,84.024 C3.988,85.149 3.800,86.311 3.646,87.509 C3.493,88.708 3.368,89.919 3.271,91.143 C3.174,92.367 3.099,93.556 3.047,94.710 L0.000,94.170 C0.082,93.479 0.196,92.700 0.342,91.832 C0.488,90.965 0.659,90.055 0.857,89.103 ZM15.053,107.332 C14.674,107.198 14.233,107.092 13.731,107.014 C13.229,106.937 12.713,106.876 12.185,106.830 C11.657,106.786 11.140,106.757 10.634,106.742 C10.128,106.727 9.675,106.720 9.272,106.720 L8.971,106.720 L9.619,121.221 L6.192,121.221 L6.594,106.830 C6.044,106.876 5.480,106.937 4.903,107.014 C4.327,107.092 3.773,107.188 3.241,107.304 C2.709,107.418 2.216,107.554 1.762,107.709 C1.309,107.865 0.933,108.043 0.635,108.243 L0.424,105.252 L15.186,105.163 L15.053,107.332 ZM17.023,111.423 C17.234,110.504 17.532,109.633 17.915,108.810 C18.298,107.987 18.796,107.267 19.410,106.648 C20.024,106.029 20.768,105.539 21.642,105.180 C22.517,104.820 23.552,104.640 24.750,104.640 C25.761,104.640 26.651,104.816 27.417,105.168 C28.183,105.520 28.845,105.995 29.403,106.592 C29.961,107.188 30.428,107.879 30.804,108.661 C31.180,109.443 31.479,110.262 31.703,111.118 C31.925,111.974 32.084,112.842 32.177,113.720 C32.270,114.599 32.315,115.431 32.315,116.217 C32.315,116.906 32.271,117.566 32.182,118.196 C32.093,118.827 31.996,119.390 31.892,119.886 C31.766,120.465 31.624,121.010 31.468,121.522 L28.087,120.921 C28.303,120.409 28.505,119.828 28.695,119.174 C28.885,118.522 29.053,117.855 29.202,117.173 C28.303,117.091 27.404,117.040 26.508,117.017 C25.611,116.996 24.720,116.984 23.835,116.984 C23.143,116.984 22.452,116.988 21.759,116.996 C21.068,117.003 20.372,117.029 19.673,117.073 C19.821,117.703 19.996,118.334 20.197,118.964 C20.398,119.594 20.629,120.239 20.889,120.898 L17.362,121.543 C17.199,121.203 17.051,120.806 16.916,120.354 C16.804,119.969 16.703,119.499 16.610,118.946 C16.517,118.394 16.470,117.770 16.470,117.073 C16.470,116.161 16.509,115.221 16.587,114.254 C16.666,113.287 16.811,112.343 17.023,111.423 ZM19.260,114.332 C19.304,114.906 19.375,115.472 19.472,116.028 C20.216,116.072 20.958,116.098 21.698,116.105 C22.438,116.113 23.188,116.117 23.947,116.117 C24.847,116.117 25.752,116.111 26.664,116.100 C27.575,116.089 28.492,116.049 29.415,115.983 C29.548,115.160 29.616,114.385 29.616,113.659 C29.616,113.133 29.576,112.573 29.499,111.980 C29.420,111.386 29.296,110.799 29.125,110.217 C28.953,109.635 28.732,109.077 28.460,108.543 C28.189,108.010 27.856,107.541 27.462,107.137 C27.068,106.732 26.611,106.410 26.095,106.169 C25.578,105.929 24.992,105.808 24.337,105.808 C23.734,105.808 23.192,105.904 22.708,106.097 C22.224,106.290 21.791,106.553 21.408,106.886 C21.025,107.220 20.694,107.607 20.414,108.049 C20.136,108.489 19.907,108.961 19.729,109.461 C19.550,109.961 19.416,110.475 19.327,111.001 C19.237,111.528 19.193,112.042 19.193,112.547 C19.193,113.163 19.215,113.757 19.260,114.332 ZM29.226,90.244 C28.532,90.252 27.833,90.277 27.131,90.321 C27.281,90.946 27.456,91.571 27.658,92.196 C27.860,92.822 28.091,93.461 28.352,94.115 L24.813,94.754 C24.648,94.417 24.499,94.023 24.364,93.575 C24.253,93.193 24.150,92.727 24.057,92.179 C23.963,91.632 23.916,91.013 23.916,90.321 C23.916,89.417 23.956,88.485 24.034,87.526 C24.112,86.566 24.258,85.630 24.471,84.719 C24.684,83.807 24.982,82.944 25.367,82.127 C25.752,81.311 26.252,80.597 26.868,79.983 C27.484,79.369 28.231,78.883 29.108,78.527 C29.986,78.170 31.026,77.992 32.228,77.992 C33.244,77.992 34.136,78.167 34.906,78.516 C35.675,78.864 36.339,79.335 36.899,79.927 C37.460,80.519 37.928,81.203 38.305,81.979 C38.682,82.754 38.983,83.567 39.207,84.416 C39.431,85.265 39.590,86.125 39.683,86.996 C39.776,87.868 39.823,88.693 39.823,89.472 C39.823,90.155 39.779,90.810 39.689,91.435 C39.599,92.060 39.502,92.619 39.398,93.111 C39.270,93.685 39.129,94.225 38.972,94.733 L35.577,94.137 C35.794,93.630 35.998,93.053 36.188,92.405 C36.379,91.759 36.549,91.097 36.698,90.420 C35.794,90.340 34.893,90.288 33.993,90.266 C33.093,90.244 32.198,90.233 31.310,90.233 C30.615,90.233 29.920,90.237 29.226,90.244 ZM34.150,89.356 C35.064,89.345 35.985,89.306 36.911,89.241 C37.045,88.424 37.112,87.656 37.112,86.936 C37.112,86.414 37.073,85.858 36.995,85.270 C36.917,84.682 36.791,84.100 36.619,83.523 C36.448,82.946 36.225,82.392 35.953,81.862 C35.680,81.333 35.346,80.869 34.950,80.468 C34.554,80.067 34.097,79.747 33.578,79.508 C33.059,79.270 32.471,79.150 31.814,79.150 C31.209,79.150 30.664,79.245 30.178,79.436 C29.693,79.628 29.258,79.889 28.874,80.219 C28.488,80.550 28.156,80.934 27.876,81.372 C27.596,81.809 27.367,82.276 27.187,82.773 C27.008,83.269 26.874,83.778 26.784,84.300 C26.695,84.822 26.650,85.332 26.650,85.833 C26.650,86.444 26.672,87.033 26.717,87.603 C26.762,88.173 26.832,88.733 26.930,89.285 C27.676,89.329 28.421,89.354 29.164,89.361 C29.907,89.370 30.660,89.373 31.422,89.373 C32.325,89.373 33.235,89.368 34.150,89.356 ZM38.537,108.549 C38.421,109.769 38.320,110.999 38.230,112.242 C38.141,113.483 38.070,114.720 38.019,115.949 C37.966,117.180 37.944,118.385 37.951,119.564 L37.951,120.065 C38.338,120.050 38.806,120.023 39.357,119.981 C39.908,119.941 40.496,119.885 41.120,119.814 C41.745,119.744 42.383,119.655 43.034,119.548 C43.686,119.440 44.307,119.314 44.898,119.169 C45.489,119.025 46.026,118.858 46.511,118.669 C46.994,118.480 47.380,118.267 47.671,118.029 L47.515,121.199 L35.507,121.243 L35.262,105.463 L38.888,104.985 C38.769,106.141 38.652,107.330 38.537,108.549 ZM45.917,88.656 L45.873,94.502 L42.983,94.523 C42.997,91.936 42.978,89.324 42.926,86.687 C42.874,84.052 42.826,81.440 42.780,78.852 C43.311,78.742 43.871,78.654 44.461,78.587 C45.051,78.521 45.648,78.470 46.253,78.433 C46.858,78.396 47.459,78.370 48.057,78.356 C48.654,78.341 49.226,78.333 49.771,78.333 C50.368,78.333 50.969,78.382 51.574,78.477 C52.179,78.573 52.760,78.719 53.316,78.918 C53.873,79.116 54.393,79.367 54.879,79.668 C55.364,79.969 55.786,80.324 56.145,80.733 C56.503,81.140 56.785,81.603 56.990,82.122 C57.195,82.640 57.298,83.216 57.298,83.848 C57.298,84.465 57.159,85.016 56.878,85.502 C56.598,85.987 56.225,86.414 55.758,86.781 C55.291,87.148 54.754,87.462 54.145,87.718 C53.536,87.976 52.907,88.182 52.258,88.336 L57.298,93.762 L53.792,94.799 L50.073,88.722 C49.520,88.766 49.009,88.788 48.538,88.788 C48.098,88.788 47.661,88.781 47.228,88.766 C46.794,88.752 46.358,88.715 45.917,88.656 ZM49.597,87.554 C50.093,87.480 50.566,87.367 51.014,87.217 C51.462,87.067 51.877,86.878 52.258,86.654 C52.638,86.430 52.969,86.169 53.249,85.872 C53.529,85.574 53.747,85.237 53.904,84.862 C54.061,84.487 54.140,84.079 54.140,83.638 C54.140,83.124 54.053,82.662 53.882,82.254 C53.710,81.846 53.477,81.486 53.181,81.174 C52.887,80.861 52.541,80.597 52.145,80.380 C51.749,80.163 51.328,79.984 50.880,79.845 C50.432,79.704 49.967,79.602 49.485,79.536 C49.003,79.469 48.527,79.436 48.057,79.436 C47.676,79.436 47.293,79.443 46.909,79.459 C46.524,79.473 46.141,79.503 45.760,79.547 L45.940,87.575 C46.290,87.619 46.645,87.646 47.004,87.653 C47.362,87.660 47.728,87.663 48.102,87.663 C48.602,87.663 49.100,87.626 49.597,87.554 ZM49.507,108.805 C49.659,108.075 49.857,107.372 50.098,106.697 C50.340,106.022 50.639,105.422 50.996,104.896 L54.611,105.708 C54.359,106.078 54.116,106.499 53.881,106.970 C53.647,107.441 53.427,107.939 53.222,108.466 C53.018,108.992 52.832,109.535 52.664,110.095 C52.498,110.655 52.353,111.211 52.229,111.763 C52.106,112.315 52.012,112.854 51.945,113.380 C51.877,113.908 51.844,114.397 51.844,114.849 C51.844,115.686 51.952,116.469 52.168,117.196 C52.384,117.922 52.711,118.556 53.150,119.097 C53.589,119.639 54.147,120.063 54.824,120.370 C55.501,120.679 56.297,120.832 57.212,120.832 C57.807,120.832 58.347,120.735 58.830,120.543 C59.314,120.351 59.745,120.087 60.124,119.753 C60.504,119.420 60.833,119.030 61.112,118.585 C61.391,118.141 61.620,117.670 61.798,117.173 C61.977,116.677 62.111,116.163 62.200,115.633 C62.289,115.103 62.334,114.590 62.334,114.092 C62.334,113.708 62.298,113.266 62.228,112.770 C62.157,112.273 62.057,111.754 61.927,111.212 C61.796,110.671 61.644,110.122 61.469,109.566 C61.294,109.010 61.102,108.479 60.894,107.970 C60.686,107.463 60.465,106.995 60.231,106.569 C59.996,106.143 59.760,105.789 59.522,105.508 L63.271,104.640 C63.584,105.233 63.848,105.867 64.063,106.541 C64.280,107.216 64.455,107.906 64.588,108.610 C64.722,109.315 64.819,110.020 64.878,110.729 C64.938,111.437 64.967,112.124 64.967,112.791 C64.967,114.037 64.803,115.216 64.476,116.328 C64.149,117.440 63.649,118.417 62.975,119.258 C62.302,120.100 61.454,120.767 60.432,121.261 C59.409,121.753 58.202,121.999 56.810,121.999 C55.925,121.999 55.120,121.887 54.394,121.661 C53.669,121.434 53.020,121.117 52.447,120.710 C51.874,120.302 51.375,119.820 50.952,119.264 C50.527,118.708 50.178,118.096 49.903,117.429 C49.628,116.761 49.421,116.056 49.283,115.311 C49.145,114.565 49.077,113.803 49.077,113.026 C49.077,112.402 49.110,111.726 49.178,110.995 C49.245,110.266 49.355,109.535 49.507,108.805 Z" class="cls-1"/>
</svg>
