<svg xmlns="http://www.w3.org/2000/svg" xmlns:xlink="http://www.w3.org/1999/xlink" preserveAspectRatio="xMidYMid" width="329" height="62" viewBox="0 0 329 62">
  <defs>
    <style>
      .cls-1 {
        fill: #bd1717;
        fill-rule: evenodd;
      }
    </style>
  </defs>
  <path d="M328.443,44.267 C328.072,45.528 327.505,46.636 326.741,47.590 C325.979,48.545 325.017,49.302 323.858,49.861 C322.699,50.419 321.330,50.699 319.753,50.699 C318.750,50.699 317.837,50.572 317.014,50.315 C316.193,50.058 315.457,49.699 314.807,49.236 C314.158,48.774 313.592,48.228 313.112,47.597 C312.631,46.966 312.234,46.272 311.923,45.515 C311.611,44.758 311.377,43.958 311.221,43.113 C311.064,42.267 310.987,41.403 310.987,40.521 C310.987,39.814 311.025,39.047 311.101,38.218 C311.177,37.391 311.301,36.563 311.474,35.734 C311.647,34.906 311.871,34.109 312.144,33.344 C312.419,32.578 312.758,31.897 313.163,31.301 L317.261,32.221 C316.974,32.642 316.698,33.119 316.432,33.653 C316.167,34.187 315.918,34.752 315.686,35.349 C315.455,35.946 315.243,36.563 315.053,37.197 C314.864,37.832 314.700,38.463 314.560,39.089 C314.421,39.715 314.314,40.327 314.238,40.924 C314.161,41.522 314.124,42.076 314.124,42.589 C314.124,43.539 314.246,44.427 314.491,45.251 C314.735,46.075 315.106,46.794 315.604,47.407 C316.101,48.022 316.734,48.503 317.501,48.851 C318.269,49.201 319.171,49.376 320.208,49.376 C320.883,49.376 321.495,49.266 322.043,49.047 C322.591,48.829 323.080,48.530 323.509,48.152 C323.940,47.774 324.313,47.331 324.629,46.827 C324.946,46.323 325.205,45.789 325.407,45.225 C325.610,44.662 325.762,44.080 325.862,43.478 C325.963,42.878 326.015,42.295 326.015,41.731 C326.015,41.295 325.974,40.794 325.894,40.231 C325.814,39.667 325.700,39.078 325.553,38.464 C325.405,37.851 325.232,37.228 325.034,36.598 C324.836,35.967 324.618,35.364 324.383,34.788 C324.147,34.212 323.896,33.682 323.630,33.199 C323.364,32.715 323.096,32.314 322.827,31.994 L327.077,31.010 C327.431,31.683 327.731,32.402 327.975,33.167 C328.220,33.932 328.418,34.715 328.570,35.513 C328.721,36.312 328.831,37.113 328.898,37.916 C328.966,38.719 328.999,39.499 328.999,40.256 C328.999,41.668 328.814,43.005 328.443,44.267 ZM295.605,49.841 L295.327,31.944 L299.437,31.401 C299.302,32.713 299.170,34.061 299.040,35.444 C298.908,36.827 298.793,38.223 298.691,39.632 C298.590,41.040 298.510,42.443 298.452,43.837 C298.392,45.233 298.367,46.600 298.375,47.938 L298.375,48.505 C298.814,48.489 299.345,48.457 299.969,48.410 C300.593,48.365 301.260,48.301 301.967,48.221 C302.676,48.141 303.399,48.041 304.137,47.919 C304.875,47.796 305.579,47.653 306.249,47.489 C306.920,47.326 307.529,47.136 308.078,46.922 C308.626,46.708 309.064,46.466 309.393,46.196 L309.216,49.791 L295.605,49.841 ZM291.507,48.303 C291.364,48.959 291.203,49.577 291.026,50.157 L287.193,49.476 C287.438,48.896 287.667,48.236 287.883,47.495 C288.098,46.756 288.289,45.999 288.458,45.225 C287.438,45.133 286.420,45.074 285.403,45.048 C284.387,45.024 283.377,45.011 282.373,45.011 C281.589,45.011 280.805,45.016 280.020,45.024 C279.236,45.032 278.448,45.061 277.656,45.112 C277.824,45.827 278.022,46.542 278.250,47.257 C278.477,47.971 278.739,48.703 279.035,49.451 L275.036,50.182 C274.851,49.796 274.683,49.345 274.531,48.833 C274.404,48.396 274.289,47.864 274.183,47.237 C274.078,46.611 274.025,45.903 274.025,45.112 C274.025,44.077 274.070,43.011 274.158,41.915 C274.247,40.817 274.411,39.747 274.652,38.704 C274.891,37.661 275.229,36.674 275.663,35.740 C276.097,34.806 276.662,33.990 277.358,33.287 C278.054,32.585 278.897,32.030 279.888,31.622 C280.879,31.215 282.053,31.010 283.411,31.010 C284.557,31.010 285.565,31.210 286.434,31.609 C287.302,32.009 288.053,32.547 288.686,33.224 C289.318,33.901 289.847,34.683 290.273,35.570 C290.699,36.457 291.038,37.386 291.292,38.358 C291.544,39.329 291.724,40.313 291.829,41.309 C291.935,42.306 291.987,43.250 291.987,44.140 C291.987,44.922 291.936,45.671 291.835,46.386 C291.734,47.101 291.624,47.740 291.507,48.303 ZM288.794,39.335 C288.704,38.662 288.564,37.996 288.370,37.336 C288.175,36.676 287.925,36.043 287.617,35.437 C287.309,34.832 286.931,34.301 286.485,33.842 C286.038,33.383 285.521,33.018 284.935,32.745 C284.349,32.472 283.685,32.335 282.942,32.335 C282.259,32.335 281.645,32.444 281.097,32.663 C280.547,32.881 280.057,33.180 279.623,33.558 C279.188,33.937 278.813,34.376 278.496,34.876 C278.180,35.376 277.921,35.911 277.719,36.478 C277.516,37.046 277.365,37.629 277.264,38.225 C277.162,38.822 277.111,39.406 277.111,39.978 C277.111,40.677 277.137,41.351 277.188,42.003 C277.238,42.654 277.318,43.296 277.428,43.926 C278.271,43.977 279.112,44.006 279.951,44.014 C280.790,44.023 281.640,44.027 282.500,44.027 C283.521,44.027 284.547,44.021 285.581,44.008 C286.613,43.995 287.653,43.951 288.698,43.876 C288.850,42.942 288.926,42.063 288.926,41.240 C288.926,40.643 288.882,40.008 288.794,39.335 ZM270.920,33.703 C270.351,33.615 269.766,33.546 269.168,33.495 C268.569,33.444 267.983,33.411 267.410,33.394 C266.836,33.378 266.322,33.369 265.865,33.369 L265.524,33.369 L266.259,49.817 L262.374,49.817 L262.830,33.495 C262.206,33.546 261.567,33.615 260.913,33.703 C260.260,33.792 259.632,33.901 259.029,34.032 C258.425,34.162 257.867,34.315 257.353,34.491 C256.839,34.668 256.413,34.869 256.075,35.096 L255.836,31.704 L272.570,31.604 L272.418,34.063 C271.989,33.911 271.489,33.792 270.920,33.703 ZM240.787,56.836 C240.801,56.869 240.808,56.894 240.801,56.950 C240.831,57.014 240.838,57.080 240.827,57.150 C240.838,57.233 240.831,57.300 240.801,57.372 C240.801,57.422 240.796,57.447 240.787,57.476 C240.768,57.547 240.737,57.605 240.744,57.590 C240.707,57.669 240.702,57.669 240.634,57.785 C240.655,57.750 240.604,57.826 240.524,57.884 C240.489,57.942 240.430,57.987 240.371,58.005 C240.306,58.066 240.255,58.098 240.194,58.109 C240.154,58.136 240.133,58.143 240.117,58.149 C240.074,58.167 240.035,58.170 239.999,58.167 C239.924,58.194 239.863,58.200 239.797,58.187 C239.706,58.200 239.641,58.194 239.583,58.167 C239.529,58.167 239.501,58.160 239.470,58.149 C237.589,57.547 234.913,56.879 231.992,55.935 C228.095,58.811 223.475,60.820 218.357,61.624 C209.791,62.978 201.489,60.699 195.022,55.929 C192.095,56.879 189.419,57.547 187.535,58.149 C187.493,58.167 187.458,58.170 187.425,58.167 C187.354,58.194 187.279,58.207 187.205,58.187 C187.119,58.200 187.058,58.194 187.004,58.167 C186.947,58.170 186.917,58.167 186.886,58.149 C186.863,58.139 186.828,58.130 186.809,58.109 C186.731,58.085 186.680,58.053 186.632,58.005 C186.549,57.970 186.510,57.934 186.477,57.884 C186.416,57.838 186.378,57.789 186.359,57.736 C186.329,57.718 186.322,57.706 186.277,57.631 C186.277,57.631 186.244,57.557 186.221,57.476 C186.204,57.442 186.193,57.401 186.204,57.372 C186.176,57.330 186.169,57.253 186.179,57.150 C186.169,57.065 186.176,57.009 186.204,56.950 C186.188,56.910 186.204,56.878 186.221,56.836 C186.828,54.955 187.493,52.292 188.456,49.373 C185.598,45.512 183.600,40.923 182.797,35.849 C181.447,27.341 183.712,19.089 188.461,12.644 C187.493,9.729 186.828,7.065 186.221,5.179 C186.204,5.138 186.188,5.103 186.204,5.064 C186.176,5.010 186.169,4.952 186.179,4.865 C186.169,4.765 186.176,4.693 186.204,4.655 C186.193,4.616 186.204,4.574 186.221,4.541 C186.244,4.462 186.277,4.390 186.277,4.386 C186.322,4.314 186.329,4.303 186.359,4.283 C186.378,4.227 186.416,4.178 186.477,4.133 C186.510,4.080 186.549,4.045 186.632,4.008 C186.680,3.961 186.731,3.935 186.809,3.907 C186.828,3.887 186.863,3.878 186.886,3.864 C186.917,3.856 186.947,3.845 187.004,3.853 C187.058,3.822 187.119,3.820 187.205,3.829 C187.279,3.820 187.354,3.822 187.425,3.856 C187.458,3.845 187.493,3.856 187.535,3.864 C189.416,4.472 192.095,5.136 195.008,6.084 C198.910,3.207 203.531,1.195 208.643,0.391 C217.210,-0.957 225.516,1.322 231.981,6.084 C234.909,5.136 237.584,4.472 239.470,3.864 C239.501,3.856 239.529,3.846 239.583,3.856 C239.641,3.822 239.706,3.820 239.797,3.829 C239.863,3.820 239.924,3.822 239.999,3.853 C240.035,3.846 240.074,3.856 240.117,3.864 C240.133,3.878 240.154,3.878 240.194,3.907 C240.255,3.921 240.306,3.948 240.371,4.008 C240.430,4.034 240.489,4.076 240.524,4.133 C240.582,4.175 240.624,4.223 240.635,4.236 C240.702,4.348 240.707,4.349 240.744,4.428 C240.738,4.415 240.768,4.472 240.787,4.541 C240.796,4.568 240.801,4.597 240.801,4.655 C240.831,4.721 240.838,4.786 240.827,4.865 C240.838,4.934 240.831,5.003 240.801,5.064 C240.813,5.103 240.801,5.138 240.787,5.179 C240.180,7.065 239.508,9.725 238.551,12.641 C241.410,16.509 243.405,21.098 244.204,26.166 C245.556,34.672 243.289,42.931 238.542,49.370 C239.508,52.283 240.175,54.955 240.787,56.836 ZM212.452,59.982 L212.452,43.060 C210.606,46.866 207.707,49.642 204.441,51.710 C202.185,53.139 199.740,54.235 197.369,55.114 C201.765,58.040 206.966,59.787 212.452,59.982 ZM195.335,53.628 C197.992,52.721 200.770,51.568 203.319,49.952 C207.674,47.190 211.291,43.129 212.222,36.656 C210.091,36.166 208.339,34.505 207.832,32.280 C201.332,33.199 197.242,36.798 194.469,41.128 C192.848,43.664 191.681,46.426 190.763,49.074 C192.117,50.758 193.654,52.283 195.335,53.628 ZM193.064,54.357 C191.982,53.424 190.967,52.411 190.030,51.333 C189.559,52.860 189.158,54.298 188.779,55.596 C190.084,55.223 191.536,54.824 193.064,54.357 ZM184.783,35.532 C185.464,39.789 187.032,43.673 189.285,47.036 C190.166,44.679 191.274,42.252 192.709,40.007 C194.785,36.766 197.568,33.886 201.374,32.052 L184.445,32.052 C184.495,33.203 184.603,34.367 184.783,35.532 ZM184.445,29.962 L201.372,29.962 C197.560,28.131 194.785,25.250 192.709,22.008 C191.274,19.778 190.166,17.347 189.285,14.993 C186.378,19.357 184.640,24.518 184.445,29.962 ZM188.779,6.419 C189.158,7.717 189.560,9.167 190.030,10.685 C190.967,9.610 191.979,8.593 193.052,7.657 C191.531,7.194 190.082,6.793 188.779,6.419 ZM190.771,12.954 C191.681,15.599 192.848,18.360 194.469,20.890 C197.242,25.217 201.332,28.821 207.832,29.737 C208.320,27.612 209.997,25.866 212.227,25.364 C211.291,18.891 207.674,14.834 203.319,12.065 C200.770,10.454 197.990,9.296 195.324,8.388 C193.642,9.739 192.112,11.271 190.771,12.954 ZM212.452,2.039 C211.298,2.082 210.129,2.196 208.958,2.378 C204.666,3.063 200.747,4.640 197.365,6.897 C199.735,7.775 202.178,8.878 204.441,10.309 C207.707,12.379 210.606,15.151 212.452,18.955 L212.452,2.039 ZM212.422,27.392 C211.183,27.763 210.236,28.738 209.875,29.930 C210.689,29.975 211.547,29.977 212.431,29.937 C212.464,29.052 212.464,28.207 212.422,27.392 ZM212.431,32.079 C211.547,32.039 210.689,32.039 209.875,32.086 C210.247,33.326 211.222,34.267 212.422,34.624 C212.464,33.813 212.464,32.964 212.431,32.079 ZM238.224,55.596 C237.845,54.298 237.448,52.851 236.973,51.330 C236.036,52.405 235.021,53.422 233.946,54.362 C235.470,54.826 236.924,55.223 238.224,55.596 ZM236.237,49.063 C235.319,46.419 234.153,43.657 232.533,41.128 C229.760,36.798 225.668,33.200 219.164,32.280 C218.685,34.407 217.010,36.152 214.781,36.650 C215.717,43.129 219.331,47.190 223.682,49.952 C226.228,51.568 229.020,52.721 231.677,53.630 C233.368,52.276 234.890,50.743 236.237,49.063 ZM214.574,29.937 C215.458,29.977 216.314,29.975 217.128,29.930 C216.756,28.697 215.780,27.752 214.581,27.392 C214.539,28.207 214.539,29.052 214.574,29.937 ZM214.581,34.624 C215.830,34.254 216.767,33.284 217.128,32.086 C216.314,32.039 215.458,32.039 214.574,32.079 C214.539,32.964 214.539,33.813 214.581,34.624 ZM214.546,59.978 C215.701,59.935 216.869,59.822 218.038,59.641 C222.332,58.953 226.252,57.381 229.643,55.122 C227.263,54.239 224.825,53.139 222.560,51.710 C219.296,49.642 216.396,46.860 214.546,43.049 L214.546,59.978 ZM214.546,2.039 L214.546,18.966 C216.397,15.155 219.296,12.382 222.560,10.309 C224.822,8.878 227.261,7.782 229.627,6.904 C225.234,3.977 220.037,2.234 214.546,2.039 ZM231.665,8.391 C229.011,9.300 226.228,10.457 223.682,12.065 C219.331,14.834 215.717,18.891 214.781,25.364 C216.912,25.852 218.664,27.510 219.161,29.737 C225.668,28.821 229.760,25.217 232.533,20.890 C234.153,18.360 235.324,15.591 236.237,12.943 C234.888,11.260 233.349,9.729 231.665,8.391 ZM233.942,7.657 C235.019,8.593 236.034,9.607 236.973,10.685 C237.448,9.167 237.845,7.717 238.224,6.419 C236.924,6.796 235.470,7.194 233.942,7.657 ZM242.210,26.481 C241.545,22.232 239.974,18.344 237.725,14.979 C236.844,17.333 235.729,19.766 234.293,22.008 C232.218,25.250 229.438,28.131 225.631,29.962 L242.553,29.962 C242.511,28.812 242.398,27.648 242.210,26.481 ZM242.553,32.052 L225.631,32.052 C229.438,33.886 232.218,36.766 234.293,40.007 C235.729,42.242 236.844,44.665 237.718,47.026 C240.629,42.660 242.360,37.497 242.553,32.052 ZM171.161,48.303 C171.018,48.959 170.856,49.577 170.680,50.157 L166.848,49.476 C167.092,48.896 167.322,48.236 167.538,47.495 C167.751,46.756 167.944,45.999 168.113,45.225 C167.092,45.133 166.073,45.074 165.057,45.048 C164.041,45.024 163.031,45.011 162.028,45.011 C161.244,45.011 160.459,45.016 159.675,45.024 C158.891,45.032 158.102,45.061 157.309,45.112 C157.478,45.827 157.677,46.542 157.904,47.256 C158.132,47.971 158.393,48.703 158.688,49.450 L154.691,50.182 C154.505,49.796 154.337,49.345 154.185,48.833 C154.059,48.396 153.943,47.864 153.837,47.237 C153.732,46.611 153.679,45.903 153.679,45.112 C153.679,44.077 153.724,43.011 153.812,41.915 C153.900,40.817 154.065,39.747 154.305,38.704 C154.546,37.661 154.883,36.674 155.317,35.740 C155.751,34.806 156.317,33.990 157.012,33.287 C157.708,32.585 158.551,32.030 159.542,31.622 C160.533,31.215 161.707,31.010 163.065,31.010 C164.212,31.010 165.219,31.210 166.087,31.609 C166.956,32.008 167.707,32.547 168.340,33.224 C168.972,33.901 169.502,34.683 169.927,35.570 C170.354,36.457 170.692,37.386 170.946,38.358 C171.199,39.329 171.377,40.313 171.483,41.309 C171.589,42.306 171.640,43.250 171.640,44.140 C171.640,44.922 171.591,45.671 171.490,46.386 C171.389,47.101 171.279,47.740 171.161,48.303 ZM168.448,39.335 C168.359,38.662 168.218,37.996 168.024,37.336 C167.829,36.676 167.580,36.043 167.270,35.437 C166.963,34.832 166.585,34.301 166.139,33.842 C165.693,33.383 165.174,33.018 164.590,32.744 C164.003,32.472 163.339,32.335 162.597,32.335 C161.914,32.335 161.298,32.444 160.750,32.663 C160.202,32.881 159.711,33.180 159.277,33.558 C158.842,33.937 158.467,34.376 158.151,34.876 C157.834,35.376 157.575,35.911 157.373,36.478 C157.170,37.046 157.018,37.629 156.917,38.225 C156.816,38.822 156.765,39.406 156.765,39.978 C156.765,40.677 156.791,41.351 156.842,42.003 C156.892,42.654 156.972,43.296 157.082,43.926 C157.925,43.977 158.766,44.006 159.605,44.014 C160.444,44.023 161.294,44.027 162.154,44.027 C163.175,44.027 164.201,44.021 165.235,44.008 C166.268,43.995 167.308,43.951 168.352,43.876 C168.505,42.942 168.580,42.063 168.580,41.240 C168.580,40.643 168.535,40.007 168.448,39.335 ZM150.593,48.303 C150.449,48.959 150.289,49.577 150.112,50.157 L146.279,49.476 C146.524,48.896 146.754,48.236 146.968,47.495 C147.184,46.756 147.376,45.999 147.544,45.225 C146.524,45.133 145.506,45.074 144.489,45.048 C143.473,45.024 142.463,45.011 141.460,45.011 C140.675,45.011 139.891,45.016 139.107,45.024 C138.323,45.032 137.534,45.061 136.741,45.112 C136.910,45.827 137.109,46.542 137.336,47.256 C137.564,47.971 137.825,48.703 138.120,49.450 L134.123,50.182 C133.937,49.796 133.769,49.345 133.617,48.833 C133.491,48.396 133.374,47.864 133.269,47.237 C133.164,46.611 133.111,45.903 133.111,45.112 C133.111,44.077 133.156,43.011 133.244,41.915 C133.332,40.817 133.497,39.747 133.737,38.704 C133.978,37.661 134.314,36.674 134.749,35.740 C135.183,34.806 135.748,33.990 136.444,33.287 C137.140,32.585 137.983,32.030 138.974,31.622 C139.965,31.215 141.139,31.010 142.497,31.010 C143.644,31.010 144.651,31.210 145.520,31.609 C146.389,32.008 147.139,32.547 147.772,33.224 C148.404,33.901 148.933,34.683 149.359,35.570 C149.785,36.457 150.124,37.386 150.377,38.358 C150.630,39.329 150.810,40.313 150.915,41.309 C151.020,42.306 151.073,43.250 151.073,44.140 C151.073,44.922 151.023,45.671 150.921,46.386 C150.820,47.101 150.711,47.740 150.593,48.303 ZM147.880,39.335 C147.791,38.662 147.650,37.996 147.455,37.336 C147.262,36.676 147.011,36.043 146.703,35.437 C146.395,34.832 146.018,34.301 145.571,33.842 C145.124,33.383 144.607,33.018 144.021,32.744 C143.435,32.472 142.771,32.335 142.029,32.335 C141.346,32.335 140.730,32.444 140.182,32.663 C139.634,32.881 139.143,33.180 138.709,33.558 C138.274,33.937 137.899,34.376 137.583,34.876 C137.266,35.376 137.007,35.911 136.805,36.478 C136.602,37.046 136.450,37.629 136.349,38.225 C136.248,38.822 136.197,39.406 136.197,39.978 C136.197,40.677 136.223,41.351 136.274,42.003 C136.324,42.654 136.404,43.296 136.514,43.926 C137.357,43.977 138.198,44.006 139.037,44.014 C139.876,44.023 140.726,44.027 141.586,44.027 C142.606,44.027 143.633,44.021 144.667,44.008 C145.699,43.995 146.739,43.951 147.785,43.876 C147.936,42.942 148.012,42.063 148.012,41.240 C148.012,40.643 147.968,40.007 147.880,39.335 ZM126.742,48.788 C126.695,48.246 126.632,47.643 126.552,46.979 C126.472,46.314 126.377,45.602 126.268,44.840 C126.158,44.080 126.038,43.300 125.907,42.501 C125.777,41.702 125.633,40.897 125.477,40.086 C125.321,39.274 125.156,38.487 124.984,37.727 C124.811,36.966 124.629,36.243 124.440,35.557 C124.250,34.872 124.058,34.252 123.864,33.697 C123.569,34.512 123.290,35.352 123.029,36.213 C122.768,37.075 122.525,37.935 122.302,38.793 C122.078,39.651 121.872,40.491 121.682,41.316 C121.493,42.139 121.322,42.918 121.170,43.649 C120.815,45.373 120.507,47.059 120.246,48.706 L117.236,49.097 C117.236,49.106 117.166,48.894 117.027,48.461 C116.888,48.028 116.692,47.444 116.439,46.708 C116.186,45.972 115.887,45.112 115.541,44.128 C115.195,43.145 114.820,42.105 114.415,41.013 C114.010,39.920 113.582,38.796 113.131,37.645 C112.680,36.492 112.227,35.383 111.771,34.315 C111.417,35.425 111.113,36.623 110.861,37.909 C110.608,39.197 110.395,40.525 110.222,41.895 C110.049,43.266 109.908,44.652 109.798,46.051 C109.688,47.452 109.604,48.812 109.545,50.131 L106.104,49.514 C106.197,48.724 106.326,47.832 106.490,46.840 C106.655,45.848 106.848,44.807 107.072,43.718 C107.295,42.630 107.540,41.519 107.805,40.388 C108.071,39.257 108.354,38.155 108.653,37.083 C108.952,36.011 109.262,34.996 109.583,34.037 C109.903,33.079 110.228,32.225 110.557,31.477 L113.479,31.301 C113.732,31.788 114.004,32.356 114.295,33.003 C114.586,33.651 114.889,34.346 115.206,35.091 C115.522,35.835 115.844,36.615 116.173,37.431 C116.502,38.246 116.827,39.073 117.147,39.909 C117.467,40.746 117.780,41.575 118.084,42.400 C118.387,43.224 118.673,44.019 118.944,44.784 C119.112,43.910 119.315,42.932 119.550,41.852 C119.787,40.770 120.054,39.648 120.354,38.484 C120.653,37.319 120.980,36.138 121.334,34.940 C121.689,33.741 122.068,32.586 122.473,31.477 L125.913,31.301 C126.420,32.637 126.964,34.201 127.545,35.993 C128.043,37.531 128.610,39.406 129.247,41.618 C129.883,43.829 130.543,46.365 131.226,49.223 L126.824,50.131 C126.816,49.779 126.788,49.331 126.742,48.788 ZM103.499,48.303 C103.355,48.959 103.195,49.577 103.018,50.157 L99.185,49.476 C99.429,48.896 99.659,48.236 99.874,47.495 C100.090,46.756 100.281,45.999 100.450,45.225 C99.429,45.133 98.411,45.074 97.395,45.048 C96.379,45.024 95.369,45.011 94.366,45.011 C93.581,45.011 92.797,45.016 92.013,45.024 C91.228,45.032 90.440,45.061 89.647,45.112 C89.816,45.827 90.014,46.542 90.242,47.256 C90.470,47.971 90.731,48.703 91.026,49.450 L87.029,50.182 C86.843,49.796 86.675,49.345 86.523,48.833 C86.396,48.396 86.280,47.864 86.175,47.237 C86.070,46.611 86.017,45.903 86.017,45.112 C86.017,44.077 86.061,43.011 86.149,41.915 C86.238,40.817 86.403,39.747 86.643,38.704 C86.883,37.661 87.220,36.674 87.655,35.740 C88.089,34.806 88.654,33.989 89.350,33.287 C90.045,32.585 90.889,32.030 91.880,31.622 C92.871,31.214 94.045,31.010 95.403,31.010 C96.550,31.010 97.557,31.210 98.426,31.609 C99.294,32.008 100.045,32.547 100.677,33.224 C101.310,33.901 101.839,34.683 102.265,35.570 C102.691,36.457 103.030,37.386 103.283,38.358 C103.536,39.329 103.716,40.313 103.821,41.309 C103.926,42.306 103.979,43.250 103.979,44.140 C103.979,44.922 103.929,45.671 103.827,46.386 C103.726,47.101 103.616,47.740 103.499,48.303 ZM100.785,39.335 C100.697,38.662 100.555,37.996 100.361,37.336 C100.168,36.676 99.916,36.043 99.609,35.437 C99.301,34.832 98.924,34.301 98.477,33.842 C98.029,33.383 97.513,33.018 96.927,32.744 C96.341,32.472 95.677,32.335 94.935,32.335 C94.252,32.335 93.636,32.444 93.088,32.663 C92.540,32.881 92.049,33.180 91.614,33.558 C91.180,33.937 90.805,34.376 90.488,34.876 C90.172,35.376 89.913,35.911 89.710,36.478 C89.508,37.046 89.356,37.629 89.255,38.225 C89.154,38.822 89.103,39.406 89.103,39.978 C89.103,40.677 89.128,41.351 89.179,42.003 C89.230,42.654 89.310,43.296 89.419,43.926 C90.263,43.977 91.104,44.006 91.943,44.014 C92.782,44.023 93.632,44.027 94.492,44.027 C95.512,44.027 96.539,44.021 97.572,44.008 C98.605,43.995 99.645,43.951 100.690,43.876 C100.842,42.942 100.918,42.063 100.918,41.240 C100.918,40.643 100.873,40.007 100.785,39.335 ZM82.431,45.037 C82.122,45.927 81.720,46.732 81.222,47.452 C80.725,48.170 80.120,48.785 79.408,49.294 C78.695,49.801 77.866,50.192 76.922,50.466 C75.977,50.739 74.902,50.876 73.696,50.876 C72.482,50.876 71.421,50.698 70.515,50.340 C69.608,49.983 68.843,49.460 68.219,48.769 C67.595,48.080 67.108,47.233 66.758,46.228 C66.408,45.224 66.183,44.069 66.081,42.765 L70.243,42.918 C70.176,43.262 70.125,43.601 70.091,43.932 C70.057,44.264 70.041,44.607 70.041,44.961 C70.041,45.784 70.176,46.497 70.445,47.098 C70.715,47.700 71.063,48.194 71.489,48.580 C71.915,48.967 72.391,49.254 72.918,49.438 C73.445,49.624 73.970,49.716 74.493,49.716 C75.455,49.716 76.283,49.474 76.979,48.991 C77.674,48.507 78.248,47.858 78.699,47.041 C79.150,46.226 79.481,45.278 79.692,44.198 C79.903,43.117 80.008,41.984 80.008,40.798 C80.008,40.134 79.956,39.400 79.850,38.597 C79.745,37.795 79.605,36.983 79.433,36.162 C79.260,35.343 79.057,34.549 78.825,33.779 C78.594,33.009 78.351,32.327 78.099,31.729 L82.323,31.187 C82.661,32.440 82.909,33.707 83.070,34.990 C83.230,36.272 83.310,37.556 83.310,38.843 C83.310,39.995 83.240,41.092 83.101,42.135 C82.962,43.177 82.739,44.145 82.431,45.037 ZM60.743,50.233 L56.544,43.283 C55.919,43.333 55.342,43.359 54.810,43.359 C54.313,43.359 53.820,43.351 53.330,43.333 C52.841,43.317 52.348,43.274 51.851,43.208 L51.800,49.893 L48.537,49.917 C48.553,46.958 48.532,43.971 48.473,40.955 C48.414,37.941 48.359,34.954 48.308,31.994 C48.907,31.868 49.540,31.767 50.206,31.691 C50.872,31.615 51.547,31.557 52.230,31.515 C52.913,31.472 53.592,31.443 54.266,31.427 C54.941,31.409 55.586,31.401 56.202,31.401 C56.877,31.401 57.556,31.456 58.239,31.565 C58.922,31.675 59.577,31.842 60.205,32.069 C60.834,32.296 61.422,32.583 61.970,32.927 C62.518,33.272 62.995,33.678 63.400,34.145 C63.804,34.611 64.123,35.141 64.354,35.734 C64.586,36.326 64.702,36.985 64.702,37.708 C64.702,38.414 64.544,39.044 64.228,39.600 C63.912,40.155 63.490,40.643 62.963,41.063 C62.436,41.483 61.829,41.841 61.141,42.135 C60.454,42.430 59.744,42.665 59.010,42.842 L64.702,49.047 L60.743,50.233 ZM60.130,40.023 C60.446,39.682 60.692,39.297 60.870,38.868 C61.047,38.439 61.135,37.973 61.135,37.468 C61.135,36.880 61.038,36.352 60.844,35.885 C60.650,35.418 60.387,35.006 60.053,34.649 C59.721,34.291 59.331,33.989 58.883,33.741 C58.436,33.493 57.961,33.288 57.454,33.129 C56.948,32.969 56.423,32.852 55.879,32.776 C55.335,32.700 54.798,32.663 54.266,32.663 C53.836,32.663 53.404,32.671 52.970,32.688 C52.535,32.705 52.103,32.739 51.673,32.789 L51.876,41.971 C52.272,42.021 52.673,42.052 53.078,42.060 C53.482,42.068 53.895,42.072 54.317,42.072 C54.882,42.072 55.445,42.029 56.006,41.946 C56.566,41.862 57.100,41.733 57.606,41.561 C58.112,41.389 58.580,41.174 59.010,40.918 C59.440,40.662 59.813,40.363 60.130,40.023 ZM44.489,48.303 C44.345,48.959 44.185,49.577 44.008,50.157 L40.175,49.476 C40.419,48.896 40.649,48.236 40.864,47.495 C41.080,46.756 41.271,45.999 41.440,45.225 C40.419,45.133 39.401,45.074 38.385,45.048 C37.369,45.024 36.359,45.011 35.356,45.011 C34.571,45.011 33.787,45.016 33.003,45.024 C32.218,45.032 31.430,45.061 30.637,45.112 C30.806,45.827 31.004,46.541 31.232,47.256 C31.460,47.971 31.721,48.703 32.016,49.450 L28.019,50.182 C27.833,49.796 27.665,49.345 27.513,48.833 C27.386,48.396 27.270,47.864 27.165,47.237 C27.060,46.611 27.007,45.903 27.007,45.112 C27.007,44.077 27.051,43.011 27.139,41.915 C27.228,40.817 27.393,39.747 27.633,38.704 C27.873,37.661 28.210,36.674 28.645,35.740 C29.079,34.806 29.644,33.989 30.340,33.287 C31.035,32.585 31.879,32.029 32.870,31.622 C33.861,31.214 35.035,31.010 36.393,31.010 C37.540,31.010 38.547,31.210 39.416,31.609 C40.285,32.008 41.035,32.547 41.668,33.224 C42.300,33.901 42.829,34.683 43.255,35.570 C43.681,36.457 44.020,37.386 44.273,38.358 C44.526,39.329 44.706,40.313 44.811,41.309 C44.916,42.306 44.969,43.250 44.969,44.140 C44.969,44.922 44.919,45.671 44.817,46.386 C44.716,47.101 44.607,47.740 44.489,48.303 ZM41.775,39.335 C41.687,38.662 41.545,37.996 41.351,37.336 C41.158,36.676 40.906,36.043 40.599,35.437 C40.291,34.832 39.914,34.301 39.467,33.842 C39.019,33.383 38.503,33.018 37.917,32.744 C37.331,32.472 36.667,32.335 35.925,32.335 C35.242,32.335 34.626,32.444 34.078,32.662 C33.530,32.881 33.039,33.180 32.604,33.558 C32.170,33.937 31.795,34.376 31.478,34.876 C31.162,35.376 30.903,35.911 30.700,36.478 C30.498,37.046 30.346,37.629 30.245,38.225 C30.144,38.822 30.093,39.406 30.093,39.978 C30.093,40.677 30.118,41.351 30.169,42.003 C30.220,42.654 30.300,43.295 30.409,43.926 C31.253,43.977 32.094,44.006 32.933,44.014 C33.772,44.023 34.622,44.027 35.482,44.027 C36.502,44.027 37.529,44.021 38.562,44.008 C39.595,43.995 40.635,43.951 41.680,43.876 C41.832,42.942 41.908,42.063 41.908,41.240 C41.908,40.643 41.863,40.007 41.775,39.335 ZM20.638,48.788 C20.591,48.246 20.528,47.643 20.448,46.979 C20.368,46.314 20.273,45.602 20.163,44.840 C20.054,44.079 19.933,43.300 19.803,42.501 C19.672,41.702 19.529,40.897 19.373,40.086 C19.216,39.274 19.052,38.487 18.880,37.727 C18.707,36.966 18.525,36.243 18.336,35.557 C18.146,34.872 17.954,34.252 17.760,33.697 C17.465,34.512 17.186,35.351 16.925,36.213 C16.663,37.075 16.421,37.935 16.198,38.793 C15.974,39.651 15.768,40.491 15.578,41.316 C15.388,42.139 15.218,42.918 15.066,43.649 C14.711,45.373 14.403,47.059 14.142,48.706 L11.132,49.097 C11.132,49.106 11.062,48.893 10.923,48.461 C10.784,48.028 10.588,47.444 10.335,46.708 C10.082,45.972 9.783,45.112 9.436,44.127 C9.091,43.145 8.716,42.105 8.311,41.013 C7.906,39.920 7.478,38.796 7.027,37.645 C6.576,36.492 6.122,35.383 5.667,34.315 C5.313,35.425 5.009,36.623 4.756,37.909 C4.504,39.197 4.291,40.525 4.117,41.895 C3.944,43.266 3.804,44.652 3.694,46.051 C3.584,47.452 3.500,48.812 3.441,50.131 L0.000,49.514 C0.093,48.724 0.221,47.832 0.386,46.840 C0.551,45.848 0.744,44.807 0.968,43.718 C1.191,42.630 1.436,41.519 1.701,40.388 C1.967,39.257 2.250,38.155 2.549,37.083 C2.848,36.011 3.158,34.996 3.479,34.037 C3.799,33.079 4.124,32.225 4.453,31.477 L7.375,31.300 C7.628,31.788 7.900,32.356 8.191,33.003 C8.482,33.651 8.785,34.346 9.101,35.091 C9.418,35.835 9.740,36.615 10.069,37.431 C10.398,38.246 10.723,39.072 11.043,39.909 C11.363,40.746 11.676,41.575 11.979,42.400 C12.283,43.224 12.569,44.019 12.840,44.784 C13.008,43.910 13.210,42.932 13.446,41.852 C13.683,40.770 13.950,39.648 14.250,38.484 C14.549,37.318 14.876,36.138 15.230,34.940 C15.584,33.741 15.964,32.586 16.368,31.477 L19.809,31.300 C20.315,32.637 20.859,34.201 21.441,35.993 C21.938,37.531 22.506,39.406 23.142,41.618 C23.779,43.829 24.439,46.365 25.122,49.223 L20.720,50.131 C20.712,49.779 20.684,49.331 20.638,48.788 Z" class="cls-1"/>
</svg>
