<svg xmlns="http://www.w3.org/2000/svg" xmlns:xlink="http://www.w3.org/1999/xlink" preserveAspectRatio="xMidYMid" width="456.469" height="572.438" viewBox="0 0 456.469 572.438">
  <defs>
    <style>
      .cls-1 {
        fill: #403325;
        opacity: 0.04;
        fill-rule: evenodd;
      }
    </style>
  </defs>
  <path d="M289.179,12.641 C226.854,28.875 172.091,59.470 127.301,99.892 C90.059,91.730 56.062,86.797 32.015,81.570 C31.483,81.529 31.034,81.441 30.639,81.612 C29.726,81.279 28.793,81.348 27.888,81.548 C26.801,81.546 26.049,81.643 25.416,82.086 C24.711,82.067 24.346,82.236 23.978,82.367 C23.705,82.570 23.280,82.730 23.071,83.000 C22.146,83.441 21.538,83.824 21.000,84.463 C20.029,85.027 19.577,85.504 19.237,86.211 C18.536,86.843 18.131,87.498 17.967,88.209 C17.613,88.494 17.540,88.633 17.075,89.587 C17.080,89.637 16.762,90.562 16.569,91.576 C16.406,92.001 16.312,92.538 16.506,93.009 C16.203,93.506 16.204,94.407 16.444,95.643 C16.435,96.733 16.593,97.434 17.008,98.067 C16.853,98.579 17.099,98.987 17.353,99.474 C27.186,122.083 38.702,154.265 54.275,189.176 C3.377,274.831 -14.531,379.819 12.643,483.535 C20.946,515.251 32.989,544.998 48.160,572.438 L77.183,572.438 C59.629,543.498 45.924,511.588 36.859,477.166 C33.189,462.962 30.420,448.675 28.394,434.474 L238.069,413.682 C193.175,441.082 162.253,480.157 140.525,522.850 C132.328,538.988 125.415,555.681 119.515,572.438 L147.125,572.438 C151.941,559.643 157.414,546.953 163.705,534.570 C192.727,477.538 238.958,427.950 318.334,408.585 C327.348,435.518 351.090,453.938 378.087,457.378 C376.048,503.638 362.280,541.285 341.491,572.438 L372.005,572.438 C378.456,561.156 384.112,549.169 388.807,536.412 L392.383,572.438 L418.568,572.438 L414.724,533.711 C423.497,547.988 433.458,560.843 444.341,572.438 L456.469,572.438 L456.469,547.053 C435.598,522.575 419.179,492.227 409.764,454.163 C433.074,446.483 450.109,427.791 456.469,405.502 L456.469,362.927 C456.151,363.006 455.844,363.094 455.525,363.171 C446.624,336.204 422.886,317.819 395.891,314.386 C398.682,252.084 422.696,205.433 456.469,169.189 L456.469,132.859 C426.087,160.148 400.517,193.669 385.121,235.439 L364.314,25.795 C395.615,23.809 426.550,25.943 456.469,31.802 L456.469,6.261 C402.561,-3.563 345.691,-2.086 289.179,12.641 ZM404.804,429.322 C403.283,419.325 402.240,408.811 401.587,397.804 C412.483,396.233 423.093,395.181 433.223,394.761 C430.235,410.044 419.813,423.209 404.804,429.322 ZM430.574,368.060 C420.555,369.609 409.948,370.691 398.955,371.284 C397.431,360.363 396.392,349.893 395.914,339.747 C411.210,342.738 424.450,353.241 430.574,368.060 ZM295.517,36.854 C309.798,33.162 324.134,30.320 338.383,28.367 L359.177,237.873 C331.638,193.032 292.317,162.256 249.322,140.637 C219.541,125.692 187.925,115.034 157.485,107.069 C196.599,74.960 243.206,50.610 295.517,36.854 ZM50.563,111.694 C67.156,114.717 85.599,117.914 105.003,121.772 C92.870,134.681 81.577,148.527 71.300,162.988 C63.606,144.770 56.853,127.306 50.563,111.694 ZM25.826,408.599 C21.546,340.934 36.728,274.875 67.366,217.256 C81.176,245.333 97.883,274.072 118.402,299.939 C148.097,337.532 186.013,369.811 235.473,387.810 L25.826,408.599 ZM315.208,377.086 C233.575,373.722 178.492,334.115 138.828,283.922 C115.632,254.590 97.791,221.821 83.260,190.180 C97.805,167.692 114.876,146.841 134.043,128.038 C168.180,136.010 204.036,146.934 237.586,163.761 C294.927,192.708 344.709,238.503 364.265,317.523 C337.266,326.485 318.642,350.161 315.208,377.086 ZM378.060,431.975 C362.766,429.021 349.532,418.566 343.400,403.669 C353.415,402.091 364.054,401.036 375.047,400.436 C376.542,411.359 377.585,421.873 378.060,431.975 ZM369.170,342.399 C370.694,352.442 371.733,362.911 372.415,373.915 C361.519,375.493 350.877,376.519 340.749,376.967 C343.746,361.757 354.277,348.521 369.170,342.399 Z" class="cls-1"/>
</svg>
